<svg width="390" height="269" viewBox="0 0 390 269" fill="none" xmlns="http://www.w3.org/2000/svg">
<g clip-path="url(#clip0_907_5368)">
<path d="M-1.90355 183.456C-6.84196 167.631 2.69637 149.398 16.7808 134.807C59.0698 91.5907 140.206 62.9965 203.278 66.6616C226.249 68.0876 249.027 74.3634 261.718 88.1467C268.319 95.4812 272.549 104.812 270.204 114.8C264.905 136.263 232.54 152.387 211.161 165.32C191.419 176.8 172.117 188.298 155.72 202.462C154.374 203.636 151.243 206.463 149.925 207.671C123.353 232.011 85.1657 233.954 54.5659 224.812C30.9743 217.853 4.53985 202.883 -1.89383 183.459L-1.90355 183.456ZM-1.90355 183.456C7.53382 210.906 57.9585 231.316 97.2736 226.338C118.1 223.944 135.175 214.748 147.51 200.768C148.422 199.805 150.32 197.975 151.277 197.042C166.466 182.388 185.237 169.614 203.804 157.727C215.753 150.017 228.316 142.408 239.003 133.943C248.549 126.374 256.321 117.825 254.266 108.577C247.012 78.4783 194.451 73.6366 157.283 77.6173C107.105 83.0322 52.461 102.165 17.7532 135.293C3.06255 149.487 -6.75128 167.672 -1.91153 183.458L-1.90355 183.456Z" fill="#40FF99"/>
<path d="M166.773 60.8079C205.899 45.6061 251.665 41.531 287.429 52.6886C305.16 58.3312 320.562 68.6366 325.854 83.343C331.621 98.1864 320.236 113.187 305.674 125.633C290.669 138.368 273.316 149.163 256.168 159.948C229.011 176.811 201.942 193.183 176.985 212.073C197.339 190.396 223.428 171.596 249.026 153.422C261.656 144.469 274.539 135.515 286.333 126.067C291.968 121.514 297.445 116.723 302.005 111.691C311.559 100.924 313.707 93.4749 307.568 83.3794C298.782 69.3278 279.41 61.4913 259.433 57.5904C230.793 52.0876 198.02 54.1746 166.767 60.816L166.773 60.8079Z" fill="#40FF99"/>
<path d="M155.335 64.2493C220.626 40.2938 315.221 20.7471 368.165 51.84C378.143 57.9269 386.097 66.671 388.938 76.9458C389.911 80.7755 388.998 85.0825 386.98 89.012C369.73 122.625 261.171 169.809 220.854 195.977C216.618 198.688 212.461 201.492 208.706 204.562C205.912 206.859 203.235 209.314 201.592 212.112C201.043 213.041 200.636 214.008 200.469 214.99C200.308 211.023 203.679 206.987 206.861 203.517C210.227 199.992 214.056 196.732 218.021 193.606C241.887 175.229 269.276 159.694 295.415 143.62C312.674 132.685 375.815 96.7804 372.855 81.3139C367.414 62.9976 344.081 53.0654 320.846 48.9529C268.774 40.2228 210.247 51.3572 155.34 64.2355L155.335 64.2493Z" fill="#40FF99"/>
<path d="M138.689 158.52C117.037 158.52 99.487 176.243 99.487 198.11C99.487 176.243 81.9372 158.52 60.2852 158.52C81.9372 158.52 99.487 140.793 99.487 118.93C99.487 140.796 117.04 158.52 138.689 158.52Z" fill="#40FF99" stroke="#40FF99" stroke-width="0.425145" stroke-miterlimit="10"/>
</g>
<defs>
<clipPath id="clip0_907_5368">
<rect width="404.969" height="158.329" fill="white" transform="translate(411.366 151.852) rotate(163.332)"/>
</clipPath>
</defs>
</svg>
