<svg width="58" height="150" viewBox="0 0 58 150" fill="none" xmlns="http://www.w3.org/2000/svg">
<mask id="mask0_907_5200" style="mask-type:alpha" maskUnits="userSpaceOnUse" x="0" y="0" width="58" height="150">
<rect x="25.8203" y="0.53125" width="32.6332" height="145.218" transform="rotate(10.0546 25.8203 0.53125)" fill="#D9D9D9"/>
</mask>
<g mask="url(#mask0_907_5200)">
<path d="M-131.837 33.655H-141.469L-147.407 67.0389H-140.414L-142.657 79.4424H-149.65L-157.963 126.945H-170.367L-151.762 21.3834H-129.726L-131.837 33.655ZM-127.023 126.945L-125.835 112.826H-135.995L-139.954 126.945H-152.358L-120.689 21.3834H-108.153L-114.619 126.945H-127.023ZM-132.565 100.555H-125.043L-122.272 66.3792L-120.821 56.3508L-122.932 66.3792L-132.565 100.555ZM-99.5591 127.869C-103.078 127.869 -105.937 126.945 -108.136 125.098C-110.247 123.163 -111.303 120.656 -111.303 117.577C-111.303 117.137 -111.215 116.389 -111.039 115.333L-106.948 91.5821L-94.149 87.4915L-99.0313 115.202V115.465C-99.0313 116.345 -98.5474 116.785 -97.5798 116.785C-96.5242 116.785 -95.8644 116.257 -95.6005 115.202L-92.5656 97.9158C-92.3897 96.5083 -92.3017 95.4087 -92.3017 94.617C-92.3017 92.2418 -92.5656 89.6028 -93.0934 86.6998C-93.6212 83.7969 -94.4129 80.1462 -95.4685 75.7478C-97.9317 65.8953 -99.1632 57.9782 -99.1632 51.9963C-99.1632 49.3573 -98.9873 46.9821 -98.6354 44.8709L-96.7881 34.4467C-96.1723 30.4881 -94.281 27.1893 -91.1141 24.5502C-87.8593 21.8232 -84.2086 20.4597 -80.1621 20.4597C-76.6433 20.4597 -73.7844 21.5593 -71.5852 23.7585C-69.386 25.8698 -68.2863 28.5968 -68.2863 31.9396C-68.2863 32.5554 -68.3743 33.391 -68.5503 34.4467L-72.3769 56.2188L-85.1763 60.1774L-80.5579 34.4467C-80.47 33.7429 -80.6019 33.2151 -80.9538 32.8632C-81.2177 32.5114 -81.6575 32.3354 -82.2733 32.3354C-82.8891 32.3354 -83.4609 32.5114 -83.9887 32.8632C-84.4285 33.2151 -84.6924 33.7429 -84.7804 34.4467L-86.6277 44.8709C-86.8916 46.4543 -87.0236 48.1257 -87.0236 49.8851C-87.0236 52.7881 -86.7597 55.8669 -86.2319 59.1218C-85.6161 62.2886 -84.7364 66.2472 -83.5928 70.9975C-82.3613 76.2756 -81.4816 80.4101 -80.9538 83.401C-80.426 86.3919 -80.1621 89.3389 -80.1621 92.2418C-80.1621 94.3531 -80.338 96.2444 -80.6899 97.9158L-83.7248 115.333C-84.3406 118.94 -86.1879 121.931 -89.2668 124.306C-92.2577 126.681 -95.6885 127.869 -99.5591 127.869ZM-46.0689 21.3834H-33.6653L-52.2706 126.945H-64.6742L-56.3611 79.4424H-61.6392L-69.9522 126.945H-82.3558L-63.7505 21.3834H-51.347L-59.3961 67.1709H-54.118L-46.0689 21.3834ZM-49.6254 126.945L-31.0201 21.3834H-18.6166L-37.2219 126.945H-49.6254ZM-1.42874 20.4597C2.09 20.4597 4.94896 21.5153 7.14817 23.6266C9.34738 25.6498 10.447 28.3329 10.447 31.6757C10.447 32.2035 10.359 33.0832 10.1831 34.3147L-3.93583 114.278C-4.63958 118.412 -6.70683 121.799 -10.1376 124.438C-13.1285 126.725 -16.4713 127.869 -20.166 127.869C-23.7727 127.869 -26.7196 126.857 -29.0068 124.834C-31.294 122.723 -32.4376 119.996 -32.4376 116.653C-32.4376 116.125 -32.3496 115.334 -32.1736 114.278L-18.0547 34.3147C-17.351 30.3561 -15.4157 27.0573 -12.2488 24.4183C-9.08198 21.7792 -5.47528 20.4597 -1.42874 20.4597ZM-2.0885 33.7869C-2.0885 33.3471 -2.22045 32.9952 -2.48435 32.7313C-2.74826 32.4674 -3.10014 32.3354 -3.53998 32.3354C-4.06779 32.3354 -4.55161 32.5114 -4.99145 32.8632C-5.34333 33.2151 -5.56325 33.6989 -5.65121 34.3147L-19.7701 114.278V114.542C-19.7701 114.894 -19.6382 115.202 -19.3743 115.465C-19.0224 115.729 -18.6265 115.861 -18.1867 115.861C-17.7469 115.861 -17.351 115.729 -16.9991 115.465C-16.5593 115.202 -16.2954 114.806 -16.2074 114.278L-2.0885 34.3147V33.7869ZM35.1715 21.3834H47.4431L28.8378 126.945H14.3231L16.6982 88.4152L18.0177 74.1643L8.64911 126.945H-3.62246L14.9828 21.3834H30.4213L27.7822 55.691L26.4627 70.9975L35.1715 21.3834Z" fill="#40FF99"/>
</g>
</svg>
