<svg width="141" height="163" viewBox="0 0 141 163" fill="none" xmlns="http://www.w3.org/2000/svg">
<path d="M116.16 162.544C120.209 109.711 113.26 56.7624 80.6217 10.5002L88.445 9.84637C84.338 20.0953 80.1926 30.3314 76.0051 40.5579C67.8792 60.4664 58.8682 82.0498 50.4511 101.788C46.685 110.755 41.1106 123.468 37.2871 132.293L35.6205 129.056C62.1017 139.704 89.7285 151.702 116.156 162.547L116.16 162.544ZM116.16 162.544C88.4565 152.92 57.9525 142.867 30.5059 132.911C38.4786 111.824 47.0068 89.8735 55.3397 68.902C64.343 46.362 74.0244 22.3693 83.3955 0C119.88 49.5378 127.163 105.83 116.16 162.544Z" fill="#40FF99"/>
<path d="M0.0038312 143.358C11.2254 136.974 21.7459 132.89 30.8526 133.45C33.2509 137.051 30.9331 147.162 28.8183 156.989C43.1546 154.673 54.855 144.195 64.6054 127.681C67.7355 122.383 72.0571 117.642 77.2599 113.657L127.161 75.4219C127.79 74.942 128.801 75.1191 129.127 75.7762C130.127 77.7828 130.307 80.4594 129.832 83.3228C134.444 76.1981 138.54 69.5791 140.065 65.4531C132.713 66.5643 125.767 69.1314 119.108 72.7356C121.824 72.0367 123.981 72.0753 125.633 72.6551C126.514 72.9643 126.652 73.966 125.885 74.4459L77.4131 104.658C68.4098 110.269 58.4679 114.724 47.9206 117.906C32.0403 122.699 7.81947 131.637 0 143.354L0.0038312 143.358Z" fill="#40FF99"/>
</svg>
