<svg width="277" height="267" viewBox="0 0 277 267" fill="none" xmlns="http://www.w3.org/2000/svg">
<path d="M261.322 118.909C264.044 145.061 240.327 165.961 219.835 178.177C181.176 200.565 134.247 206.409 90.5137 199.412C62.4512 194.932 20.9095 181.219 15.719 149.047C14.8544 142.519 15.6529 135.704 18.0174 129.558C29.586 100.123 64.9289 82.7987 93.4495 73.8692C129.611 63.0863 170.322 60.623 206.755 71.3703C229.589 78.2654 257.716 92.8736 261.318 118.915L261.322 118.909ZM260.696 118.987C259.262 107.919 252.519 98.6703 243.842 91.9831C222.799 76.133 194.516 71.9804 168.82 70.8974C123.81 69.5616 63.381 81.8266 31.848 116.059C23.8181 124.956 17.9585 136.368 19.1327 148.635C20.4063 161.068 28.5785 171.291 38.5004 178.36C77.9007 205.804 139.103 200.619 183.235 188.103C207.752 180.758 234.439 169.681 250.9 149.304C257.701 140.701 262.004 130.099 260.689 118.998L260.696 118.987Z" fill="white"/>
<path d="M218.645 124.15C220.43 138.455 216.449 153.241 208.624 165.314C195.387 186.055 171.659 198.661 147.46 201.029C109.787 205.059 64.8968 183.987 58.4011 143.809C53.5323 113.321 75.8068 85.6996 102.595 73.9038C122.709 64.7466 146.081 62.7788 167.365 68.7868C192.883 75.9221 215.516 97.1123 218.643 124.141L218.645 124.15ZM218.02 124.228C215.123 100.021 194.881 82.8777 172.572 76.1601C159.41 72.1212 145.366 70.9435 131.711 72.6884C100.504 76.358 68.2727 97.133 62.3997 129.699C57.9189 153.363 71.7217 176.362 92.5287 187.38C108.95 196.406 128.508 198.477 146.822 195.831C182.149 191.153 222.591 164.032 218.023 124.222L218.02 124.228Z" fill="white"/>
<path d="M174.924 129.518C176.984 149.281 177.797 172.371 165.874 189.464C161.566 195.5 155.055 200.326 147.462 201.039C124.371 202.628 110.782 171.911 105.505 153.402C100.338 135.272 98.5694 115.833 103.428 97.3816C106.901 83.8701 115.445 67.9706 130.894 66.0231C140.541 64.9046 149.481 70.1443 155.667 77.111C168.178 91.5242 172.441 111.125 174.927 129.512L174.924 129.518ZM174.299 129.596C171.758 110.393 163.557 91.475 148.881 78.7754C138.055 69.6867 126.033 70.5318 117.434 81.9773C106.187 97.1791 104.314 119.612 105.542 138.033C106.607 151.248 110.018 164.516 116.785 176.004C122.92 186.454 134.087 197.668 146.822 195.832C152.624 194.908 157.645 191.088 161.408 186.118C172.925 170.217 176.628 149.123 174.302 129.59L174.299 129.596Z" fill="white"/>
<path d="M261.057 119.312C217.232 125.945 168.31 132.77 124.394 138.99C99.4924 142.929 73.3295 145.928 48.1947 147.662C37.9837 148.4 27.7563 149.003 17.4802 149.201L17.39 148.475C37.0827 143.998 57.8726 140.704 77.8863 137.723C97.4667 134.812 119.116 133.058 138.869 130.976C171.939 127.394 212.646 123.297 245.699 120.042L260.97 118.58L261.06 119.306L261.057 119.312Z" fill="white"/>
<path d="M131.236 68.8389C136.78 90.1046 140.101 111.717 142.864 133.455C145.452 155.21 147.458 176.981 147.203 198.96C141.644 177.694 138.329 156.084 135.576 134.344C133.006 112.585 131 90.8132 131.236 68.8389Z" fill="white"/>
</svg>
