<svg width="295" height="295" viewBox="0 0 295 295" fill="none" xmlns="http://www.w3.org/2000/svg">
<path d="M295 147.497C216.641 147.497 202.812 172.263 202.812 202.812C202.812 172.263 178.05 147.497 147.5 147.497C178.05 147.497 202.812 122.733 202.812 92.1875C202.812 122.737 216.641 147.497 295 147.497Z" fill="#40FF99"/>
<path d="M0 147.503C78.3594 147.503 92.1875 122.737 92.1875 92.1875C92.1875 122.737 116.95 147.503 147.5 147.503C116.95 147.503 92.1875 172.267 92.1875 202.812C92.1875 172.263 78.3594 147.503 0 147.503Z" fill="#40FF99"/>
<path d="M147.497 0C147.497 78.3594 172.263 92.1875 202.812 92.1875C172.263 92.1875 147.5 116.953 147.5 147.503C147.5 116.953 122.733 92.1875 92.1875 92.1875C122.737 92.1875 147.497 78.3594 147.497 0Z" fill="#40FF99"/>
<path d="M147.503 295C147.503 216.641 122.737 202.812 92.1875 202.812C122.737 202.812 147.5 178.047 147.5 147.497C147.5 178.047 172.267 202.812 202.812 202.812C172.263 202.812 147.503 216.641 147.503 295Z" fill="#40FF99"/>
</svg>
