<svg width="307" height="161" viewBox="0 0 307 161" fill="none" xmlns="http://www.w3.org/2000/svg">
<mask id="mask0_956_4076" style="mask-type:alpha" maskUnits="userSpaceOnUse" x="0" y="0" width="307" height="103">
<rect y="0.15625" width="307" height="102.006" fill="#D9D9D9"/>
</mask>
<g mask="url(#mask0_956_4076)">
<path d="M19.148 135.627C14.5458 135.627 10.9298 134.203 8.29993 131.354C5.77968 128.833 4.51956 125.656 4.51956 121.821C4.51956 121.054 4.62913 120.013 4.84829 118.698L11.7516 79.579L26.2156 84.5099L20.1341 118.698V119.026C20.1341 120.122 20.7368 120.67 21.9421 120.67C22.49 120.67 23.0379 120.506 23.5858 120.177C24.1337 119.739 24.4624 119.245 24.572 118.698L44.9531 2.98536H60.4033L40.0222 118.698C39.2552 123.519 36.8445 127.573 32.7902 130.861C28.8454 134.038 24.298 135.627 19.148 135.627ZM81.6679 1.83481C86.051 1.83481 89.6122 3.14972 92.3516 5.77954C95.091 8.29979 96.4607 11.6419 96.4607 15.8057C96.4607 16.4632 96.3511 17.559 96.1319 19.093L78.545 118.698C77.6684 123.848 75.0934 128.066 70.8199 131.354C67.0943 134.203 62.9304 135.627 58.3282 135.627C53.8356 135.627 50.1648 134.367 47.3158 131.847C44.4669 129.217 43.0424 125.82 43.0424 121.656C43.0424 120.999 43.1519 120.013 43.3711 118.698L60.958 19.093C61.8347 14.1621 64.2453 10.053 68.1901 6.76573C72.1348 3.47845 76.6274 1.83481 81.6679 1.83481ZM80.8461 18.4356C80.8461 17.8877 80.6817 17.4494 80.353 17.1207C80.0243 16.7919 79.586 16.6276 79.0381 16.6276C78.3806 16.6276 77.778 16.8467 77.2301 17.285C76.7918 17.7233 76.5178 18.326 76.4083 19.093L58.8213 118.698V119.026C58.8213 119.465 58.9857 119.848 59.3144 120.177C59.7527 120.506 60.2458 120.67 60.7937 120.67C61.3416 120.67 61.8347 120.506 62.273 120.177C62.8208 119.848 63.1496 119.355 63.2591 118.698L80.8461 19.093V18.4356ZM96.851 135.627C92.3584 135.627 88.6876 134.367 85.8386 131.847C82.9897 129.217 81.5652 125.82 81.5652 121.656C81.5652 120.999 81.6748 120.013 81.8939 118.698L102.275 2.98536H117.725L97.3441 118.698V119.026C97.3441 119.465 97.5085 119.848 97.8372 120.177C98.2755 120.506 98.7686 120.67 99.3165 120.67C99.8644 120.67 100.357 120.506 100.796 120.177C101.344 119.848 101.672 119.355 101.782 118.698L122.163 2.98536H137.449L117.068 118.698C116.191 123.848 113.616 128.066 109.343 131.354C105.617 134.203 101.453 135.627 96.851 135.627ZM139.319 134.477L144.085 73.1688H143.592L132.744 134.477H117.458L140.633 2.98536H160.522C164.247 2.98536 167.315 4.1907 169.726 6.60136C172.137 8.90246 173.342 11.9158 173.342 15.6414C173.342 16.7371 173.287 17.6138 173.178 18.2712L166.274 56.8967C165.836 59.417 164.905 61.7729 163.48 63.9644C162.165 66.1559 160.467 67.9639 158.385 69.3884L154.111 134.477H139.319ZM145.4 62.6495H149.674C150.002 62.6495 150.276 62.5399 150.495 62.3208C150.824 62.1016 150.988 61.8277 150.988 61.4989L158.385 19.4218C158.494 19.2026 158.44 18.9835 158.22 18.7643C158.111 18.4356 157.892 18.2712 157.563 18.2712H153.29L145.4 62.6495ZM205.749 2.98536H221.034L197.859 134.477H179.779L182.738 86.4823L184.381 68.731L172.711 134.477H157.426L180.601 2.98536H199.832L196.544 45.72L194.901 64.7862L205.749 2.98536ZM249.079 18.2712H237.08L229.684 60.0197H238.395L235.601 75.3055H226.89L219.165 119.191H231.163L228.534 134.477H201.085L224.26 2.98536H251.709L249.079 18.2712ZM293.891 2.98536L264.306 96.3441L257.567 134.477H242.117L248.856 96.5085L253.293 2.98536H268.908L265.949 40.1316L263.977 56.2393L267.757 40.1316L278.277 2.98536H293.891Z" fill="#101010"/>
</g>
<mask id="mask1_956_4076" style="mask-type:alpha" maskUnits="userSpaceOnUse" x="2" y="104" width="294" height="35">
<rect x="2.21191" y="104.625" width="293.481" height="34.1657" fill="#D9D9D9"/>
</mask>
<g mask="url(#mask1_956_4076)">
<path d="M42.3223 18.1916L42.4867 16.7123L58.9231 2.577H60.4023V2.74136L42.3223 18.1916ZM43.1441 13.2607L43.3085 11.7814L53.9921 2.577H55.6358L43.1441 13.2607ZM43.9659 8.32974L44.2947 6.85046L49.0612 2.577H50.7049L43.9659 8.32974ZM44.7878 3.39882L44.9521 2.577H45.7739L44.7878 3.39882ZM41.3361 23.1225L41.6648 21.6432L59.7449 6.19301L59.5805 7.67228L41.3361 23.1225ZM40.5143 28.0534L40.843 26.5741L58.9231 11.1239L58.7587 12.6032L40.5143 28.0534ZM39.6925 32.9843L39.8568 31.5051L58.1012 16.0548L57.7725 17.5341L39.6925 32.9843ZM38.7063 37.9153L39.035 36.436L57.2794 20.9858L56.9507 22.465L38.7063 37.9153ZM37.8845 42.8462L38.2132 41.3669L56.2932 25.9167L56.1289 27.396L37.8845 42.8462ZM37.0627 47.7771L37.227 46.2978L55.4714 30.8476L55.1427 32.3269L37.0627 47.7771ZM36.2408 52.708L36.4052 51.2287L54.6496 35.7785L54.3209 37.2578L36.2408 52.708ZM35.2547 57.6389L35.5834 56.1597L53.6634 40.7094L53.4991 42.1887L35.2547 57.6389ZM34.4328 62.5699L34.7616 61.0906L52.8416 45.6404L52.6772 47.1196L34.4328 62.5699ZM33.611 67.5008L33.7754 66.0215L52.0198 50.5713L51.6911 52.0506L33.611 67.5008ZM32.6248 72.4317L32.9536 70.9524L51.198 55.5022L50.8692 56.9815L32.6248 72.4317ZM31.803 77.3626L32.1317 75.8833L50.2118 60.4331L50.0474 61.9124L31.803 77.3626ZM30.9812 82.2935L31.1456 80.8143L49.39 65.364L49.0612 66.8433L30.9812 82.2935ZM29.995 87.2245L30.3237 85.7452L48.5681 70.295L48.2394 71.7742L29.995 87.2245ZM29.1732 92.1554L29.5019 90.6761L47.582 75.2259L47.4176 76.7052L29.1732 92.1554ZM11.2575 82.2935L11.4219 80.8143L12.9011 79.6637L13.8873 79.9924L11.2575 82.2935ZM28.3514 97.0863L28.5157 95.607L46.7601 80.1568L46.4314 81.6361L28.3514 97.0863ZM10.2713 87.2245L10.6 85.7452L16.3528 80.8143L17.5033 81.143L10.2713 87.2245ZM9.4495 92.1554L9.77823 90.6761L19.8044 81.9648L21.1193 82.2935L9.4495 92.1554ZM8.62768 97.0863L8.79205 95.607L23.4204 83.1154L24.4066 83.6085L8.62768 97.0863ZM27.5295 102.017L27.6939 100.538L45.9383 85.0877L45.6096 86.567L27.5295 102.017ZM7.80586 102.017L7.97023 100.538L26.0503 85.2521L25.7215 86.7314L7.80586 102.017ZM26.5434 106.948L26.8721 105.469L44.9521 90.0186L44.7878 91.4979L26.5434 106.948ZM6.81968 106.948L7.14841 105.469L25.0641 90.183L24.8997 91.6623L6.81968 106.948ZM25.7215 111.879L26.0503 110.4L44.1303 94.9496L43.9659 96.4288L25.7215 111.879ZM5.99786 111.879L6.32659 110.4L24.2423 95.1139L23.9135 96.5932L5.99786 111.879ZM24.8997 116.81L25.0641 115.331L43.3085 99.8805L42.9798 101.36L24.8997 116.81ZM5.17604 116.81L5.3404 115.331L23.4204 100.045L23.0917 101.524L5.17604 116.81ZM10.6 133.082L9.94259 132.425L42.4867 104.811L42.1579 106.291L10.6 133.082ZM4.68295 121.577C4.57337 121.357 4.51858 121.138 4.51858 120.919C4.62816 120.59 4.62816 120.316 4.51858 120.097L22.4343 104.976L22.2699 106.455L4.68295 121.577ZM14.0517 134.561L12.7368 134.068L41.5005 109.742L41.3361 111.222L14.0517 134.561ZM5.01167 125.357C4.9021 125.028 4.84731 124.645 4.84731 124.206L21.6124 109.907L21.4481 111.386L5.01167 125.357ZM17.9964 135.219C17.339 135.219 16.8459 135.164 16.5172 135.054L40.6787 114.673L40.3499 116.153L17.9964 135.219ZM6.16222 128.48C6.16222 128.151 5.99786 127.822 5.66913 127.494L20.7906 114.838L20.4619 116.317L6.16222 128.48ZM7.47713 130.288L20.2975 119.44C20.4071 119.769 20.6263 119.988 20.955 120.097L8.29895 130.945L7.47713 130.288ZM39.8568 119.604L39.1994 121.412L23.4204 134.89L21.4481 135.054L39.8568 119.604ZM36.4052 126.672C34.652 129.082 32.2413 131.11 29.1732 132.753L36.4052 126.672ZM61.6145 17.041L78.544 2.74136L80.352 2.41263L61.1214 18.849L61.6145 17.041ZM60.464 22.3007L83.4749 2.577L84.9542 2.74136L60.2996 23.78L60.464 22.3007ZM59.3134 28.7109L59.6422 27.2316L87.4197 3.39882L88.5702 3.89191L59.3134 28.7109ZM63.7513 12.4388C65.9428 8.71326 69.2301 5.91907 73.6131 4.05627L63.7513 12.4388ZM58.8203 32.1625L90.707 5.04245C90.707 5.04245 90.9261 5.26161 91.3644 5.69991L58.4916 33.6418L58.8203 32.1625ZM80.8451 18.849C80.626 18.3012 80.4616 17.9724 80.352 17.8628L93.0081 7.17919L93.6655 7.83665L80.8451 18.849ZM80.1877 23.6156L80.352 22.1363L94.9804 9.80902L95.3091 10.7952L80.1877 23.6156ZM79.2015 28.5465L79.5302 27.0672L95.9666 13.0963L96.2953 14.0825L79.2015 28.5465ZM78.7084 31.9982L96.4597 16.8767C96.2405 17.4245 96.2405 17.8629 96.4597 18.1916L78.3797 33.4774L78.7084 31.9982ZM57.6698 38.5727L57.8342 37.0934L76.0786 21.6432L75.7498 23.1225L57.6698 38.5727ZM77.5578 38.4083L77.8866 36.9291L95.8022 21.6432L95.4735 23.1225L77.5578 38.4083ZM56.6836 43.5036L57.0123 42.0244L75.2567 26.5741L74.928 28.0534L56.6836 43.5036ZM76.736 43.3393L76.9004 41.86L94.9804 26.5741L94.6517 28.0534L76.736 43.3393ZM55.8618 48.4346L56.1905 46.9553L74.2706 31.5051L74.1062 32.9843L55.8618 48.4346ZM75.7498 48.2702L76.0786 46.7909L93.9942 31.5051L93.8299 32.9843L75.7498 48.2702ZM55.04 53.3655L55.2043 51.8862L73.4487 36.436L73.12 37.9153L55.04 53.3655ZM74.928 53.2011L75.2567 51.7218L93.1724 36.436L92.8437 37.9153L74.928 53.2011ZM54.2181 58.2964L54.3825 56.8171L72.6269 41.3669L72.2982 42.8462L54.2181 58.2964ZM74.1062 58.132L74.2706 56.6528L92.3506 41.3669L92.0219 42.8462L74.1062 58.132ZM53.232 63.2273L53.5607 61.748L71.6407 46.2978L71.4764 47.7771L53.232 63.2273ZM73.12 63.063L73.4487 61.5837L91.3644 46.2978L91.2 47.7771L73.12 63.063ZM72.2982 67.9939L72.6269 66.3502L90.5426 51.0644L90.3782 52.708L72.2982 67.9939ZM52.4101 68.1582L52.7389 66.679L70.8189 51.2287L70.6545 52.708L52.4101 68.1582ZM51.5883 73.0892L51.7527 71.6099L69.9971 56.1597L69.6684 57.6389L51.5883 73.0892ZM71.4764 72.9248L71.6407 71.4455L89.7208 56.1597L89.392 57.6389L71.4764 72.9248ZM50.6021 78.0201L50.9309 76.5408L69.1753 61.0906L68.8465 62.5699L50.6021 78.0201ZM70.6545 77.8557L70.8189 76.3764L88.8989 61.0906L88.5702 62.5699L70.6545 77.8557ZM49.7803 82.951L50.109 81.4717L68.1891 66.0215L68.0247 67.5008L49.7803 82.951ZM69.6684 82.7866L69.9971 81.143L87.9128 66.0215L87.7484 67.5008L69.6684 82.7866ZM48.9585 87.8819L49.1229 86.4026L67.3673 70.9524L67.0385 72.4317L48.9585 87.8819ZM68.8465 87.7176L69.1753 86.0739L87.0909 70.9524L86.7622 72.4317L68.8465 87.7176ZM48.1367 92.8128L48.301 91.1692L66.5454 75.719L66.2167 77.3626L48.1367 92.8128ZM68.0247 92.6485L68.1891 91.0048L86.2691 75.8833L85.9404 77.3626L68.0247 92.6485ZM47.1505 97.7438L47.4792 96.1001L65.7236 80.6499L65.3949 82.2935L47.1505 97.7438ZM67.0385 97.5794L67.3673 95.9358L85.2829 80.8143L85.1186 82.2935L67.0385 97.5794ZM46.3287 102.675L46.6574 101.031L64.7374 85.5808L64.5731 87.2245L46.3287 102.675ZM66.2167 102.51L66.5454 100.867L84.4611 85.7452L84.2968 87.2245L66.2167 102.51ZM45.5069 107.606L45.6712 105.962L63.9156 90.5117L63.5869 92.1554L45.5069 107.606ZM65.3949 107.441L65.7236 105.798L83.6393 90.6761L83.3106 92.1554L65.3949 107.441ZM44.5207 112.537L44.8494 110.893L63.0938 95.4427L62.7651 97.0863L44.5207 112.537ZM64.5731 112.372L64.7374 110.729L82.8175 95.4427L82.4888 97.0863L64.5731 112.372ZM43.6988 117.467L44.0276 115.824L62.1076 100.374L61.9433 102.017L43.6988 117.467ZM63.5869 117.303L63.9156 115.824L81.8313 100.538L81.6669 102.017L63.5869 117.303ZM43.0414 122.234C43.151 122.015 43.151 121.796 43.0414 121.577C43.0414 121.248 43.0962 120.974 43.2058 120.755L61.2858 105.305L60.9571 106.948L43.0414 122.234ZM49.2872 133.739C48.8489 133.52 48.5202 133.301 48.301 133.082L81.0095 105.305L80.6808 106.948L49.2872 133.739ZM43.5345 126.014L43.2058 124.864L60.464 110.235L60.1353 111.879L43.5345 126.014ZM52.2458 135.219C52.1362 135.219 51.7527 135.109 51.0952 134.89L80.1877 110.235L79.8589 111.879L52.2458 135.219ZM44.8494 129.137L44.3563 128.151L59.6422 115.166L59.3134 116.81L44.8494 129.137ZM54.8756 135.876L79.3658 115.166L79.0371 116.81L56.1905 136.205L54.8756 135.876ZM46.6574 131.767C46.5478 131.658 46.4382 131.548 46.3287 131.438C46.2191 131.329 46.1643 131.164 46.1643 130.945L58.8203 120.097L59.3134 120.919L46.6574 131.767ZM78.3797 120.097C78.3797 120.316 78.2153 120.919 77.8866 121.905L61.2858 136.041L59.4778 136.205L78.3797 120.097ZM75.7498 126.672C74.3253 128.754 72.6817 130.507 70.8189 131.931C69.504 132.918 68.0247 133.794 66.3811 134.561L75.7498 126.672ZM99.6442 19.0134L99.8086 17.5341L116.081 3.56318H117.724L99.6442 19.0134ZM100.466 14.0825L100.795 12.6032L111.15 3.56318H112.793L100.466 14.0825ZM101.288 9.15156L101.617 7.67228L106.219 3.56318H107.862L101.288 9.15156ZM102.274 4.22063V3.56318H102.932L102.274 4.22063ZM119.532 18.849L119.697 17.3698L135.969 3.56318H137.448L119.532 18.849ZM120.354 13.9181L120.683 12.4388L131.038 3.56318H132.517L120.354 13.9181ZM121.176 8.9872L121.505 7.50792L125.942 3.56318H127.586L121.176 8.9872ZM122.162 4.05627V3.56318H122.655L122.162 4.05627ZM98.6581 23.9443L98.9868 22.465L117.231 7.01483L116.902 8.4941L98.6581 23.9443ZM118.71 23.78L118.875 22.3007L136.955 7.01483L136.626 8.4941L118.71 23.78ZM97.8362 28.8752L98.165 27.396L116.245 11.9457L116.081 13.425L97.8362 28.8752ZM117.724 28.7109L118.053 27.2316L135.969 11.9457L135.804 13.425L117.724 28.7109ZM97.0144 33.8062L97.1788 32.3269L115.423 16.8767L115.094 18.3559L97.0144 33.8062ZM116.902 33.6418L117.231 32.1625L135.147 16.8767L134.818 18.3559L116.902 33.6418ZM96.1926 38.7371L96.357 37.2578L114.601 21.8076L114.273 23.2869L96.1926 38.7371ZM116.081 38.5727L116.245 37.0934L134.325 21.8076L133.996 23.2869L116.081 38.5727ZM95.2064 43.668L95.5351 42.1887L113.615 26.7385L113.451 28.2178L95.2064 43.668ZM115.094 43.5036L115.423 42.0244L133.339 26.7385L133.175 28.2178L115.094 43.5036ZM94.3846 48.5989L94.7133 47.1196L112.793 31.6694L112.629 33.1487L94.3846 48.5989ZM114.273 48.4346L114.601 46.9553L132.517 31.6694L132.353 33.1487L114.273 48.4346ZM93.5628 53.5298L93.7271 52.0506L111.972 36.6003L111.643 38.0796L93.5628 53.5298ZM113.451 53.3655L113.615 51.8862L131.695 36.6003L131.367 38.0796L113.451 53.3655ZM112.629 58.2964L112.793 56.8171L130.873 41.3669L130.545 43.0105L112.629 58.2964ZM92.5766 58.4608L92.9053 56.9815L111.15 41.5313L110.821 43.0105L92.5766 58.4608ZM91.7548 63.3917L92.0835 61.9124L110.164 46.4622L109.999 47.9415L91.7548 63.3917ZM111.643 63.2273L111.972 61.748L129.887 46.4622L129.723 47.9415L111.643 63.2273ZM90.933 68.3226L91.0973 66.8433L109.342 51.3931L109.013 52.8724L90.933 68.3226ZM110.821 68.1582L111.15 66.679L129.065 51.3931L128.737 52.8724L110.821 68.1582ZM90.1111 73.2535L90.2755 71.7742L108.52 56.324L108.191 57.8033L90.1111 73.2535ZM109.999 73.0892L110.164 71.6099L128.244 56.324L127.915 57.8033L109.999 73.0892ZM89.1249 78.1844L89.4537 76.7052L107.534 61.2549L107.369 62.7342L89.1249 78.1844ZM109.013 78.0201L109.342 76.5408L127.257 61.2549L127.093 62.7342L109.013 78.0201ZM88.3031 83.1154L88.6319 81.4717L106.712 66.1859L106.548 67.6651L88.3031 83.1154ZM108.191 82.951L108.52 81.4717L126.436 66.1859L126.271 67.6651L108.191 82.951ZM87.4813 88.0463L87.6457 86.4026L105.89 71.1168L105.561 72.5961L87.4813 88.0463ZM107.369 87.8819L107.534 86.4026L125.614 71.1168L125.285 72.5961L107.369 87.8819ZM86.4951 92.9772L86.8239 91.3336L105.068 76.0477L104.74 77.527L86.4951 92.9772ZM106.548 92.8128L106.712 91.1692L124.792 76.0477L124.463 77.527L106.548 92.8128ZM85.6733 97.9081L86.002 96.2645L104.082 80.9786L103.918 82.4579L85.6733 97.9081ZM105.561 97.7438L105.89 96.1001L123.806 80.9786L123.641 82.4579L105.561 97.7438ZM84.8515 102.839L85.1802 101.195L103.26 85.9095L102.932 87.3888L84.8515 102.839ZM104.74 102.675L105.068 101.031L122.984 85.9095L122.655 87.3888L104.74 102.675ZM84.0297 107.77L84.194 106.126L102.438 90.6761L102.11 92.3197L84.0297 107.77ZM103.918 107.606L104.082 106.126L122.162 90.8405L121.833 92.3197L103.918 107.606ZM83.0435 112.701L83.3722 111.057L101.617 95.607L101.288 97.2507L83.0435 112.701ZM102.932 112.537L103.26 110.893L121.176 95.7714L121.012 97.2507L102.932 112.537ZM82.2217 117.632L82.5504 115.988L100.63 100.538L100.302 102.182L82.2217 117.632ZM102.11 117.467L102.438 115.824L120.354 100.538L120.025 102.182L102.11 117.467ZM81.5642 122.398C81.5642 122.179 81.5642 121.96 81.5642 121.741C81.6738 121.522 81.6738 121.248 81.5642 120.919L99.8086 105.469L99.4799 107.113L81.5642 122.398ZM87.6457 133.904L86.8239 133.246L119.532 105.469L119.204 107.113L87.6457 133.904ZM90.933 135.383L89.7824 134.89L118.71 110.4L118.382 112.043L90.933 135.383ZM82.0573 126.179C81.9477 125.96 81.8929 125.795 81.8929 125.686C82.0025 125.466 82.0025 125.247 81.8929 125.028L98.9868 110.564L98.6581 112.043L82.0573 126.179ZM83.2078 129.302C83.2078 128.973 83.0435 128.644 82.7148 128.315L98.0006 115.331L97.8362 116.974L83.2078 129.302ZM94.8777 136.205C94.549 136.095 94.0559 136.041 93.3984 136.041L117.724 115.331L117.56 116.974L94.8777 136.205ZM85.3446 131.767C84.9063 131.548 84.6871 131.274 84.6871 130.945L97.3432 120.097L98.0006 120.919L85.3446 131.767ZM116.902 120.426L116.409 122.07L99.973 136.041L98.165 136.205L116.902 120.426ZM114.108 127.001C112.574 129.082 110.985 130.726 109.342 131.931C107.917 133.027 106.548 133.849 105.233 134.397L114.108 127.001ZM136.852 24.7661L137.181 23.2869L160.027 3.72755H161.671L136.852 24.7661ZM137.838 19.8352L138.003 18.3559L155.097 3.72755H156.74L137.838 19.8352ZM138.66 14.9043L138.989 13.425L150.166 3.72755H151.809L138.66 14.9043ZM139.482 9.97338L139.811 8.4941L145.235 3.72755H146.878L139.482 9.97338ZM140.468 5.04245L140.633 3.72755H141.947L140.468 5.04245ZM136.359 28.2178L164.465 4.22063C164.904 4.43979 165.287 4.54937 165.616 4.54937L136.03 29.6971L136.359 28.2178ZM135.209 34.628L135.373 33.1487L167.753 5.69991L168.574 6.19301L153.617 19.0134H153.289L153.124 19.3421L135.209 34.628ZM158.055 19.3421C157.617 19.123 157.398 19.0134 157.398 19.0134H157.069L170.218 7.83665L170.875 8.4941L158.055 19.3421ZM157.891 22.465L172.026 10.4665C172.026 10.6856 172.081 10.85 172.19 10.9596C172.3 11.0691 172.41 11.1787 172.519 11.2883L157.562 23.9443L157.891 22.465ZM157.069 27.396L173.012 13.7538C173.231 14.1921 173.286 14.5208 173.177 14.7399L156.74 28.8752L157.069 27.396ZM155.918 33.8062L156.083 32.3269L173.341 17.6985L173.177 19.0134L173.012 19.1778L155.918 33.8062ZM155.097 38.7371L155.261 37.2578L172.519 22.6294L172.19 24.1087L155.097 38.7371ZM134.387 39.5589L134.551 38.0796L152.631 22.7938L152.302 24.273L134.387 39.5589ZM154.11 43.668L154.439 42.1887L171.533 27.5603L171.369 29.0396L154.11 43.668ZM133.401 44.4898L133.729 43.0105L151.645 27.7247L151.481 29.204L133.401 44.4898ZM153.289 48.5989L153.617 47.1196L170.711 32.4913L170.547 33.9705L153.289 48.5989ZM132.579 49.4207L132.907 47.9415L150.823 32.6556L150.494 34.1349L132.579 49.4207ZM152.467 53.5298L152.631 52.0506L169.889 37.4222L169.561 38.9014L152.467 53.5298ZM131.757 54.3517L131.921 52.8724L150.001 37.5865L149.673 39.0658L131.757 54.3517ZM151.481 58.4608L151.809 56.8171L169.067 42.1887L168.739 43.8324L151.481 58.4608ZM130.771 59.2826L131.099 57.8033L149.015 42.5175L148.851 43.9967L130.771 59.2826ZM126.826 82.2935L149.015 63.3917H149.508C149.837 63.3917 150.111 63.2821 150.33 63.063C150.659 62.8438 150.823 62.5699 150.823 62.2411L150.987 61.9124L168.081 47.284L167.917 48.7633L126.497 83.9372L126.826 82.2935ZM129.949 64.2135L130.278 62.7342L148.193 47.4484L148.029 48.9276L129.949 64.2135ZM125.675 88.8681L125.84 87.2245L167.259 52.2149L166.931 53.6942L125.675 88.8681ZM129.127 69.1444L129.291 67.6651L147.371 52.3793L147.043 53.8586L129.127 69.1444ZM124.689 93.799L125.018 92.1554L166.438 57.1458L166.273 57.6389L166.109 58.6251L124.689 93.799ZM128.305 74.0753L128.47 72.5961L146.55 57.3102L146.221 58.7895L128.305 74.0753ZM127.319 79.0063L127.648 77.527L145.563 62.0768L145.399 63.3917H145.728L127.319 79.0063ZM142.276 81.8004L164.63 62.7342C163.972 64.0491 163.424 64.9805 162.986 65.5284L142.276 83.1154V81.8004ZM141.783 87.5532L142.112 86.2383L157.069 73.2535V74.7328L141.783 87.5532ZM141.454 92.1554L141.619 90.6761L157.069 77.6913L156.905 79.0063L141.454 92.1554ZM123.867 98.7299L124.196 97.0863L142.112 81.8004L141.947 83.4441L123.867 98.7299ZM141.126 96.5932L141.29 95.4427V95.2783L156.74 81.9648L156.905 83.2797L141.126 96.5932ZM140.961 101.031V99.5518L156.74 86.2383L156.576 87.7176L140.961 101.031ZM123.046 103.661L123.374 102.017L141.29 86.7314L140.961 88.375L123.046 103.661ZM140.797 105.305L140.961 103.99L156.576 90.6761L156.411 91.991L140.797 105.305ZM122.224 108.592L122.388 106.948L140.468 91.6623L140.139 93.3059L122.224 108.592ZM140.468 109.742L140.633 108.427L156.411 94.9496V96.2645L140.468 109.742ZM121.238 113.523L121.566 111.879L139.482 96.5932L139.318 98.2368L121.238 113.523ZM140.304 114.016V112.701L156.247 99.223L156.083 100.702L140.304 114.016ZM120.416 118.454L120.744 116.81L138.66 101.524L138.331 103.168L120.416 118.454ZM140.139 118.454L140.304 116.974L156.083 103.496L155.918 104.976L140.139 118.454ZM119.594 123.385L119.758 121.741L137.838 106.455L137.51 108.099L119.594 123.385ZM139.811 122.891L139.975 121.412L155.918 107.934V109.249L139.811 122.891ZM118.608 128.315L118.936 126.836L136.852 111.55L136.688 113.03L118.608 128.315ZM139.811 127.165V125.85L155.754 112.208L155.59 113.523L139.811 127.165ZM117.786 133.246L118.115 131.603L136.03 116.317L135.866 117.961L117.786 133.246ZM139.482 131.603V130.123L155.59 116.481V117.961L139.482 131.603ZM139.318 135.219V134.561L155.425 120.919V122.234L140.139 135.219H139.318ZM118.772 135.219L135.209 121.248L134.88 122.891L120.416 135.219H118.772ZM143.427 135.219L155.261 125.193V126.507L145.07 135.219H143.427ZM123.703 135.219L134.387 126.179L134.058 127.822L125.347 135.219H123.703ZM148.358 135.219L155.097 129.466V130.945L150.001 135.219H148.358ZM128.634 135.219L133.401 131.11L133.236 132.753L130.278 135.219H128.634ZM153.289 135.219L155.097 133.739L154.932 135.219H153.289ZM198.187 3.72755H199.666L177.313 22.7938L177.477 21.3145L198.187 3.72755ZM193.256 3.72755H194.735L178.134 17.8628L178.299 16.3836L193.256 3.72755ZM188.325 3.72755H189.804L178.956 12.9319L179.285 11.4527L188.325 3.72755ZM183.394 3.72755H184.873L179.778 8.00101L180.107 6.52173L183.394 3.72755ZM217.911 3.72755H219.39L203.282 17.3698L203.611 15.8905L217.911 3.72755ZM212.98 3.72755H214.459L204.268 12.4388L204.433 10.9596L212.98 3.72755ZM208.049 3.72755H209.528L205.09 7.50792L205.419 6.02865L208.049 3.72755ZM202.789 20.8214L220.705 5.53555L220.54 7.01483L202.46 22.3007L202.789 20.8214ZM199.666 6.68609L199.502 8.16537L176.326 27.7247L176.655 26.2454L199.666 6.68609ZM201.639 27.2316L201.803 25.7523L219.883 10.4665L219.554 11.9457L201.639 27.2316ZM199.173 11.1239V12.6032L175.505 32.6556L175.833 31.1763L199.173 11.1239ZM200.817 32.1625L200.981 30.6832L219.061 15.3974L218.732 16.8767L200.817 32.1625ZM198.844 15.7261V17.041L174.683 37.5865L174.847 36.1073L198.844 15.7261ZM198.516 20.1639V21.6432L173.697 42.5175L174.025 41.0382L198.516 20.1639ZM199.831 37.0934L200.159 35.6142L218.075 20.3283L217.911 21.8076L199.831 37.0934ZM198.187 24.7661L198.023 26.081L172.875 47.4484L173.204 45.9691L198.187 24.7661ZM199.009 42.0244L199.337 40.5451L217.253 25.2592L216.924 26.7385L199.009 42.0244ZM197.858 29.204L197.694 30.5189L172.053 52.3793L172.217 50.9L197.858 29.204ZM198.187 46.9553L198.351 45.476L216.431 30.1901L216.103 31.6694L198.187 46.9553ZM197.529 33.6418V34.9567L171.231 57.3102L171.396 55.8309L197.529 33.6418ZM197.201 51.8862L197.529 50.4069L215.445 35.1211L215.281 36.6003L197.201 51.8862ZM197.201 38.0796V39.5589L170.245 62.2411L170.574 60.7619L197.201 38.0796ZM196.379 56.8171L196.708 55.3378L214.623 40.052L214.459 41.5313L196.379 56.8171ZM196.872 42.6818L196.708 43.9967L169.423 67.172L169.752 65.6928L196.872 42.6818ZM195.557 61.748L195.721 60.2688L213.801 44.9829L213.473 46.4622L195.557 61.748ZM196.543 47.1196L196.379 48.4346L168.601 72.103L168.766 70.6237L196.543 47.1196ZM183.887 74.5684L212.98 49.9138L212.651 51.3931L183.723 76.0477L183.887 74.5684ZM196.215 51.7218L195.886 53.0368L167.615 77.0339L167.944 75.5546L196.215 51.7218ZM183.394 80.4855V79.0063L211.993 54.8448L211.829 56.324L183.394 80.4855ZM195.721 56.1597L195.557 57.6389L166.793 81.9648L167.122 80.4855L195.721 56.1597ZM183.065 85.0877V83.6085L211.172 59.7757L210.843 61.2549L183.065 85.0877ZM195.228 60.5975L195.064 62.0768L184.052 71.4455L184.216 70.1306L195.228 60.5975ZM182.572 89.5256L182.737 88.0463L210.35 64.7066L210.021 66.1859L182.572 89.5256ZM182.408 93.9634L182.572 92.4841L209.364 69.6375L209.199 71.1168L182.408 93.9634ZM165.972 86.8957L166.136 85.4165L184.216 70.1306L183.887 71.6099L165.972 86.8957ZM182.079 98.4012L182.244 96.9219L208.542 74.5684L208.213 76.0477L182.079 98.4012ZM165.15 91.8267L165.314 90.3474L183.394 75.0615L183.065 76.5408L165.15 91.8267ZM181.915 102.839V101.36L207.72 79.4994L207.391 80.9786L181.915 102.839ZM164.164 96.7576L164.492 95.2783L182.408 79.9924L182.244 81.4717L164.164 96.7576ZM181.586 107.277L181.75 105.798L206.734 84.4303L206.569 85.9095L181.586 107.277ZM163.342 101.688L163.67 100.209L181.586 84.9234L181.257 86.4026L163.342 101.688ZM181.257 111.715L181.422 110.235L205.912 89.3612L205.748 90.8405L181.257 111.715ZM162.52 106.619L162.684 105.14L180.764 89.8543L180.436 91.3336L162.52 106.619ZM180.929 116.153L181.093 114.673L205.09 94.2921L204.761 95.7714L180.929 116.153ZM161.534 111.55L161.862 110.071L179.778 94.7852L179.614 96.2645L161.534 111.55ZM180.764 120.426V119.111L204.268 99.223L203.94 100.702L180.764 120.426ZM160.712 116.481L161.041 115.002L178.956 99.7161L178.628 101.195L160.712 116.481ZM180.436 124.864L180.6 123.549L203.282 104.154L203.118 105.633L180.436 124.864ZM159.89 121.412L160.054 119.933L178.134 104.647L177.806 106.126L159.89 121.412ZM180.107 129.302L180.271 127.987L202.46 109.085L202.132 110.564L180.107 129.302ZM159.068 126.343L159.233 124.864L177.313 109.578L176.984 111.057L159.068 126.343ZM179.942 133.739V132.26L201.639 114.016L201.31 115.495L179.942 133.739ZM158.082 131.274L158.411 129.63L176.326 114.509L176.162 115.988L158.082 131.274ZM183.065 135.219H181.422L200.652 118.947L200.488 120.426L183.065 135.219ZM157.425 135.219L157.589 134.726L175.505 119.44L175.176 120.919L158.411 135.219H157.425ZM187.996 135.219H186.353L199.831 123.878L199.666 125.357L187.996 135.219ZM163.342 135.219H161.698L174.683 124.371L174.354 125.85L163.342 135.219ZM192.927 135.219H191.284L199.009 128.809L198.68 130.288L192.927 135.219ZM168.273 135.219H166.629L173.861 129.137L173.532 130.781L168.273 135.219ZM197.858 135.219H196.215L198.187 133.575L197.858 135.219ZM172.71 135.219H171.56L172.875 134.068L172.71 135.219ZM219.657 29.6971L219.986 28.0534L248.585 3.72755H250.229L219.657 29.6971ZM220.479 24.7661L220.807 23.2869L243.818 3.72755H245.298L220.479 24.7661ZM221.465 19.8352L221.629 18.3559L238.888 3.72755H240.367L221.465 19.8352ZM222.287 14.9043L222.615 13.425L233.957 3.72755H235.436L222.287 14.9043ZM223.109 9.97338L223.437 8.32974L228.861 3.72755H230.505L223.109 9.97338ZM224.095 5.04245L224.259 3.72755H225.574L224.095 5.04245ZM218.835 34.628L219.164 32.9843L251.379 5.53555L251.05 7.17919L237.244 19.0134H237.08L236.915 19.1778L218.835 34.628ZM240.531 19.0134L250.557 10.4665L250.229 12.1101L242.175 19.0134H240.531ZM245.462 19.0134L249.736 15.3974L249.407 17.041L247.106 19.0134H245.462ZM218.013 39.5589L218.178 38.0796L236.422 22.465L236.093 24.1087L218.013 39.5589ZM217.027 44.4898L217.356 43.0105L235.6 27.396L235.272 29.0396L217.027 44.4898ZM216.205 49.4207L216.534 47.9415L234.614 32.3269L234.45 33.9705L216.205 49.4207ZM215.383 54.3517L215.548 52.8724L233.792 37.2578L233.464 38.9014L215.383 54.3517ZM214.397 59.2826L214.726 57.8033L232.97 42.1887L232.642 43.8324L214.397 59.2826ZM213.575 64.2135L213.904 62.7342L231.984 47.284L231.82 48.7633L213.575 64.2135ZM212.754 69.1444L212.918 67.6651L231.162 52.2149L230.834 53.6942L212.754 69.1444ZM211.932 74.0753L212.096 72.5961L230.341 57.1458L230.012 58.6251L211.932 74.0753ZM210.124 83.9372L210.453 82.4579L235.929 60.7619H237.408L210.124 83.9372ZM210.946 79.0063L211.274 77.527L230.998 60.7619H232.477L210.946 79.0063ZM209.302 88.8681L209.466 87.3888L237.901 63.2273L237.737 64.7066L209.302 88.8681ZM227.711 76.0477L237.08 68.1582L236.751 69.6375L229.19 76.0477H227.711ZM232.642 76.0477L236.258 73.0892L235.929 74.5684L234.121 76.0477H232.642ZM208.316 93.799L208.645 92.3197L226.889 76.8695L226.56 78.3488L208.316 93.799ZM207.494 98.7299L207.823 97.2507L225.903 81.8004L225.738 83.2797L207.494 98.7299ZM206.672 103.661L206.837 102.182L225.081 86.7314L224.752 88.2106L206.672 103.661ZM205.85 108.592L206.015 107.113L224.259 91.4979L223.93 93.1416L205.85 108.592ZM204.864 113.523L205.193 111.879L223.273 96.5932L223.109 98.0725L204.864 113.523ZM204.042 118.454L204.371 116.81L222.451 101.36L222.287 103.003L204.042 118.454ZM203.221 123.385L203.385 121.741L221.629 106.291L221.301 107.934L203.221 123.385ZM202.234 128.315L202.563 126.672L220.807 111.222L220.479 112.865L202.234 128.315ZM201.413 133.246L201.741 131.603L219.821 116.153L219.657 117.796L201.413 133.246ZM202.399 135.219L220.314 119.933H221.958L204.042 135.219H202.399ZM207.33 135.219L225.245 119.933H226.889L208.973 135.219H207.33ZM212.261 135.219L230.176 119.933H231.162V120.59L213.904 135.219H212.261ZM217.191 135.219L230.505 123.878L230.176 125.521L218.835 135.219H217.191ZM222.287 135.219L229.683 128.973L229.354 130.452L223.766 135.219H222.287ZM227.053 135.219L228.861 133.739L228.533 135.219H227.053ZM252.799 18.0272L252.635 16.7123L267.921 3.72755H268.907L269.071 4.22063L252.799 18.0272ZM252.799 13.5894L252.964 12.2745L262.99 3.72755H264.634L252.799 13.5894ZM253.128 9.31592L253.292 7.83665L258.059 3.72755H259.703L253.128 9.31592ZM253.292 4.87809V3.72755H254.772L253.292 4.87809ZM273.181 21.6432L273.674 19.9996L292.74 3.72755H293.89V3.89191L273.181 21.6432ZM274.824 16.0548L275.317 14.2468L287.645 3.72755H289.288L274.824 16.0548ZM276.468 10.4665L276.961 8.65846L282.714 3.72755H284.357L276.468 10.4665ZM278.111 4.87809L278.276 3.72755H279.426L278.111 4.87809ZM252.471 22.465L252.635 20.9858L268.743 7.17919V8.65846L252.471 22.465ZM271.537 27.2316L272.03 25.4236L292.575 8.00101L292.082 9.64465L271.537 27.2316ZM252.142 26.7385L252.306 25.4236L268.414 11.7814L268.25 13.0963L252.142 26.7385ZM269.893 32.6556L270.386 31.012L290.767 13.7538L290.274 15.3974L269.893 32.6556ZM252.142 31.1763V29.6971L268.085 16.2192L267.921 17.5341L252.142 31.1763ZM268.25 38.244L268.743 36.6003L288.959 19.5065L288.302 21.1501L268.25 38.244ZM251.813 35.4498V34.1349L267.757 20.657L267.592 21.972L251.813 35.4498ZM251.649 39.8876L251.813 38.5727L267.428 25.0949V26.4098L251.649 39.8876ZM266.935 43.668L267.263 42.0244L287.151 25.2592L286.658 26.9029L266.935 43.668ZM251.484 44.3255V43.0105L267.099 29.5327V31.012L251.484 44.3255ZM265.784 48.7633L266.113 47.284L285.343 30.8476L284.85 32.6556L265.784 48.7633ZM251.156 48.5989V47.284L266.77 34.1349V35.4498L251.156 48.5989ZM264.634 53.8586L265.127 52.3793L283.535 36.6003L283.042 38.4083L264.634 53.8586ZM250.991 53.0368L251.156 51.7218L266.606 38.5727L266.442 39.8876L250.991 53.0368ZM250.17 70.4593V69.1444L281.727 42.3531L281.234 44.1611L250.17 70.4593ZM250.827 57.3102V55.9953L266.113 43.1749L265.784 44.4898L250.827 57.3102ZM250.663 61.748V60.4331L265.455 47.9415L265.127 49.4207L250.663 61.748ZM250.005 74.8972V73.5822L279.755 48.1058L279.426 49.9138L250.005 74.8972ZM250.334 66.0215V64.871L264.798 52.708L264.469 54.1873L250.334 66.0215ZM249.676 79.1706L249.841 77.8557L278.111 53.6942L277.454 55.6666L249.676 79.1706ZM249.512 83.6085L249.676 82.1292L276.303 59.6113L275.646 61.4193L249.512 83.6085ZM249.348 87.8819V86.567L274.495 65.1997L273.838 67.0077L249.348 87.8819ZM249.183 92.3197L249.019 91.0048L272.687 70.9524L272.03 72.7604L249.183 92.3197ZM248.855 96.7576L249.019 95.2783L270.879 76.7052L270.222 78.5132L248.855 96.7576ZM248.033 101.524L248.362 100.045L269.071 82.4579L268.414 84.2659L248.033 101.524ZM247.211 106.455L247.375 104.976L267.099 88.2106L266.442 90.0186L247.211 106.455ZM246.389 111.386L246.554 109.742L265.291 93.9634L264.798 95.7714L246.389 111.386ZM245.403 116.317L245.732 114.673L263.812 99.3874L263.647 100.867L245.403 116.317ZM244.581 121.248L244.91 119.604L262.99 104.318L262.826 105.798L244.581 121.248ZM243.759 126.179L243.924 124.699L262.168 109.249L261.839 110.729L243.759 126.179ZM242.773 131.11L243.102 129.466L261.346 114.016L261.018 115.659L242.773 131.11ZM242.116 135.219L242.28 134.397L260.36 118.947L260.196 120.59L243.102 135.219H242.116ZM246.389 135.219L259.538 123.878L259.21 125.521L248.033 135.219H246.389ZM251.32 135.219L258.716 128.809L258.388 130.452L252.964 135.219H251.32ZM256.251 135.219L257.895 133.739L257.566 135.219H256.251Z" fill="#40FF99"/>
</g>
<mask id="mask2_956_4076" style="mask-type:alpha" maskUnits="userSpaceOnUse" x="2" y="138" width="294" height="23">
<rect x="2.21191" y="138.781" width="293.481" height="21.3843" fill="#D9D9D9"/>
</mask>
<g mask="url(#mask2_956_4076)">
<path d="M42.3223 40.551L42.4867 39.0717L58.9231 24.9364H60.4023V25.1007L42.3223 40.551ZM43.1441 35.62L43.3085 34.1408L53.9921 24.9364H55.6358L43.1441 35.62ZM43.9659 30.6891L44.2947 29.2098L49.0612 24.9364H50.7049L43.9659 30.6891ZM44.7878 25.7582L44.9521 24.9364H45.7739L44.7878 25.7582ZM41.3361 45.4819L41.6648 44.0026L59.7449 28.5524L59.5805 30.0317L41.3361 45.4819ZM40.5143 50.4128L40.843 48.9335L58.9231 33.4833L58.7587 34.9626L40.5143 50.4128ZM39.6925 55.3437L39.8568 53.8644L58.1012 38.4142L57.7725 39.8935L39.6925 55.3437ZM38.7063 60.2746L39.035 58.7954L57.2794 43.3451L56.9507 44.8244L38.7063 60.2746ZM37.8845 65.2056L38.2132 63.7263L56.2932 48.2761L56.1289 49.7553L37.8845 65.2056ZM37.0627 70.1365L37.227 68.6572L55.4714 53.207L55.1427 54.6863L37.0627 70.1365ZM36.2408 75.0674L36.4052 73.5881L54.6496 58.1379L54.3209 59.6172L36.2408 75.0674ZM35.2547 79.9983L35.5834 78.519L53.6634 63.0688L53.4991 64.5481L35.2547 79.9983ZM34.4328 84.9292L34.7616 83.45L52.8416 67.9997L52.6772 69.479L34.4328 84.9292ZM33.611 89.8602L33.7754 88.3809L52.0198 72.9307L51.6911 74.4099L33.611 89.8602ZM32.6248 94.7911L32.9536 93.3118L51.198 77.8616L50.8692 79.3409L32.6248 94.7911ZM31.803 99.722L32.1317 98.2427L50.2118 82.7925L50.0474 84.2718L31.803 99.722ZM30.9812 104.653L31.1456 103.174L49.39 87.7234L49.0612 89.2027L30.9812 104.653ZM29.995 109.584L30.3237 108.105L48.5681 92.6543L48.2394 94.1336L29.995 109.584ZM29.1732 114.515L29.5019 113.035L47.582 97.5853L47.4176 99.0645L29.1732 114.515ZM11.2575 104.653L11.4219 103.174L12.9011 102.023L13.8873 102.352L11.2575 104.653ZM28.3514 119.446L28.5157 117.966L46.7601 102.516L46.4314 103.995L28.3514 119.446ZM10.2713 109.584L10.6 108.105L16.3528 103.174L17.5033 103.502L10.2713 109.584ZM9.4495 114.515L9.77823 113.035L19.8044 104.324L21.1193 104.653L9.4495 114.515ZM8.62768 119.446L8.79205 117.966L23.4204 105.475L24.4066 105.968L8.62768 119.446ZM27.5295 124.377L27.6939 122.897L45.9383 107.447L45.6096 108.926L27.5295 124.377ZM7.80586 124.377L7.97023 122.897L26.0503 107.611L25.7215 109.091L7.80586 124.377ZM26.5434 129.308L26.8721 127.828L44.9521 112.378L44.7878 113.857L26.5434 129.308ZM6.81968 129.308L7.14841 127.828L25.0641 112.542L24.8997 114.022L6.81968 129.308ZM25.7215 134.238L26.0503 132.759L44.1303 117.309L43.9659 118.788L25.7215 134.238ZM5.99786 134.238L6.32659 132.759L24.2423 117.473L23.9135 118.953L5.99786 134.238ZM24.8997 139.169L25.0641 137.69L43.3085 122.24L42.9798 123.719L24.8997 139.169ZM5.17604 139.169L5.3404 137.69L23.4204 122.404L23.0917 123.884L5.17604 139.169ZM10.6 155.441L9.94259 154.784L42.4867 127.171L42.1579 128.65L10.6 155.441ZM4.68295 143.936C4.57337 143.717 4.51858 143.498 4.51858 143.278C4.62816 142.95 4.62816 142.676 4.51858 142.457L22.4343 127.335L22.2699 128.814L4.68295 143.936ZM14.0517 156.921L12.7368 156.428L41.5005 132.102L41.3361 133.581L14.0517 156.921ZM5.01167 147.716C4.9021 147.388 4.84731 147.004 4.84731 146.566L21.6124 132.266L21.4481 133.745L5.01167 147.716ZM17.9964 157.578C17.339 157.578 16.8459 157.523 16.5172 157.414L40.6787 137.033L40.3499 138.512L17.9964 157.578ZM6.16222 150.839C6.16222 150.51 5.99786 150.182 5.66913 149.853L20.7906 137.197L20.4619 138.676L6.16222 150.839ZM7.47713 152.647L20.2975 141.799C20.4071 142.128 20.6263 142.347 20.955 142.457L8.29895 153.305L7.47713 152.647ZM39.8568 141.964L39.1994 143.772L23.4204 157.249L21.4481 157.414L39.8568 141.964ZM36.4052 149.031C34.652 151.442 32.2413 153.469 29.1732 155.113L36.4052 149.031ZM61.6145 39.4004L78.544 25.1007L80.352 24.772L61.1214 41.2084L61.6145 39.4004ZM60.464 44.6601L83.4749 24.9364L84.9542 25.1007L60.2996 46.1393L60.464 44.6601ZM59.3134 51.0703L59.6422 49.591L87.4197 25.7582L88.5702 26.2513L59.3134 51.0703ZM63.7513 34.7982C65.9428 31.0726 69.2301 28.2784 73.6131 26.4156L63.7513 34.7982ZM58.8203 54.5219L90.707 27.4018C90.707 27.4018 90.9261 27.621 91.3644 28.0593L58.4916 56.0012L58.8203 54.5219ZM80.8451 41.2084C80.626 40.6605 80.4616 40.3318 80.352 40.2222L93.0081 29.5386L93.6655 30.196L80.8451 41.2084ZM80.1877 45.975L80.352 44.4957L94.9804 32.1684L95.3091 33.1546L80.1877 45.975ZM79.2015 50.9059L79.5302 49.4266L95.9666 35.4557L96.2953 36.4419L79.2015 50.9059ZM78.7084 54.3575L96.4597 39.236C96.2405 39.7839 96.2405 40.2222 96.4597 40.551L78.3797 55.8368L78.7084 54.3575ZM57.6698 60.9321L57.8342 59.4528L76.0786 44.0026L75.7498 45.4819L57.6698 60.9321ZM77.5578 60.7677L77.8866 59.2884L95.8022 44.0026L95.4735 45.4819L77.5578 60.7677ZM56.6836 65.863L57.0123 64.3837L75.2567 48.9335L74.928 50.4128L56.6836 65.863ZM76.736 65.6986L76.9004 64.2194L94.9804 48.9335L94.6517 50.4128L76.736 65.6986ZM55.8618 70.7939L56.1905 69.3147L74.2706 53.8644L74.1062 55.3437L55.8618 70.7939ZM75.7498 70.6296L76.0786 69.1503L93.9942 53.8644L93.8299 55.3437L75.7498 70.6296ZM55.04 75.7248L55.2043 74.2456L73.4487 58.7954L73.12 60.2746L55.04 75.7248ZM74.928 75.5605L75.2567 74.0812L93.1724 58.7954L92.8437 60.2746L74.928 75.5605ZM54.2181 80.6558L54.3825 79.1765L72.6269 63.7263L72.2982 65.2056L54.2181 80.6558ZM74.1062 80.4914L74.2706 79.0121L92.3506 63.7263L92.0219 65.2056L74.1062 80.4914ZM53.232 85.5867L53.5607 84.1074L71.6407 68.6572L71.4764 70.1365L53.232 85.5867ZM73.12 85.4223L73.4487 83.9431L91.3644 68.6572L91.2 70.1365L73.12 85.4223ZM72.2982 90.3532L72.6269 88.7096L90.5426 73.4238L90.3782 75.0674L72.2982 90.3532ZM52.4101 90.5176L52.7389 89.0383L70.8189 73.5881L70.6545 75.0674L52.4101 90.5176ZM51.5883 95.4485L51.7527 93.9693L69.9971 78.519L69.6684 79.9983L51.5883 95.4485ZM71.4764 95.2842L71.6407 93.8049L89.7208 78.519L89.392 79.9983L71.4764 95.2842ZM50.6021 100.379L50.9309 98.9002L69.1753 83.45L68.8465 84.9292L50.6021 100.379ZM70.6545 100.215L70.8189 98.7358L88.8989 83.45L88.5702 84.9292L70.6545 100.215ZM49.7803 105.31L50.109 103.831L68.1891 88.3809L68.0247 89.8602L49.7803 105.31ZM69.6684 105.146L69.9971 103.502L87.9128 88.3809L87.7484 89.8602L69.6684 105.146ZM48.9585 110.241L49.1229 108.762L67.3673 93.3118L67.0385 94.7911L48.9585 110.241ZM68.8465 110.077L69.1753 108.433L87.0909 93.3118L86.7622 94.7911L68.8465 110.077ZM48.1367 115.172L48.301 113.529L66.5454 98.0784L66.2167 99.722L48.1367 115.172ZM68.0247 115.008L68.1891 113.364L86.2691 98.2427L85.9404 99.722L68.0247 115.008ZM47.1505 120.103L47.4792 118.459L65.7236 103.009L65.3949 104.653L47.1505 120.103ZM67.0385 119.939L67.3673 118.295L85.2829 103.174L85.1186 104.653L67.0385 119.939ZM46.3287 125.034L46.6574 123.39L64.7374 107.94L64.5731 109.584L46.3287 125.034ZM66.2167 124.87L66.5454 123.226L84.4611 108.105L84.2968 109.584L66.2167 124.87ZM45.5069 129.965L45.6712 128.321L63.9156 112.871L63.5869 114.515L45.5069 129.965ZM65.3949 129.801L65.7236 128.157L83.6393 113.035L83.3106 114.515L65.3949 129.801ZM44.5207 134.896L44.8494 133.252L63.0938 117.802L62.7651 119.446L44.5207 134.896ZM64.5731 134.732L64.7374 133.088L82.8175 117.802L82.4888 119.446L64.5731 134.732ZM43.6988 139.827L44.0276 138.183L62.1076 122.733L61.9433 124.377L43.6988 139.827ZM63.5869 139.662L63.9156 138.183L81.8313 122.897L81.6669 124.377L63.5869 139.662ZM43.0414 144.593C43.151 144.374 43.151 144.155 43.0414 143.936C43.0414 143.607 43.0962 143.333 43.2058 143.114L61.2858 127.664L60.9571 129.308L43.0414 144.593ZM49.2872 156.099C48.8489 155.88 48.5202 155.661 48.301 155.441L81.0095 127.664L80.6808 129.308L49.2872 156.099ZM43.5345 148.374L43.2058 147.223L60.464 132.595L60.1353 134.238L43.5345 148.374ZM52.2458 157.578C52.1362 157.578 51.7527 157.469 51.0952 157.249L80.1877 132.595L79.8589 134.238L52.2458 157.578ZM44.8494 151.497L44.3563 150.51L59.6422 137.526L59.3134 139.169L44.8494 151.497ZM54.8756 158.236L79.3658 137.526L79.0371 139.169L56.1905 158.564L54.8756 158.236ZM46.6574 154.126C46.5478 154.017 46.4382 153.907 46.3287 153.798C46.2191 153.688 46.1643 153.524 46.1643 153.305L58.8203 142.457L59.3134 143.278L46.6574 154.126ZM78.3797 142.457C78.3797 142.676 78.2153 143.278 77.8866 144.265L61.2858 158.4L59.4778 158.564L78.3797 142.457ZM75.7498 149.031C74.3253 151.113 72.6817 152.866 70.8189 154.291C69.504 155.277 68.0247 156.154 66.3811 156.921L75.7498 149.031ZM99.6442 41.3728L99.8086 39.8935L116.081 25.9226H117.724L99.6442 41.3728ZM100.466 36.4419L100.795 34.9626L111.15 25.9226H112.793L100.466 36.4419ZM101.288 31.5109L101.617 30.0317L106.219 25.9226H107.862L101.288 31.5109ZM102.274 26.58V25.9226H102.932L102.274 26.58ZM119.532 41.2084L119.697 39.7291L135.969 25.9226H137.448L119.532 41.2084ZM120.354 36.2775L120.683 34.7982L131.038 25.9226H132.517L120.354 36.2775ZM121.176 31.3466L121.505 29.8673L125.942 25.9226H127.586L121.176 31.3466ZM122.162 26.4156V25.9226H122.655L122.162 26.4156ZM98.6581 46.3037L98.9868 44.8244L117.231 29.3742L116.902 30.8535L98.6581 46.3037ZM118.71 46.1393L118.875 44.6601L136.955 29.3742L136.626 30.8535L118.71 46.1393ZM97.8362 51.2346L98.165 49.7553L116.245 34.3051L116.081 35.7844L97.8362 51.2346ZM117.724 51.0703L118.053 49.591L135.969 34.3051L135.804 35.7844L117.724 51.0703ZM97.0144 56.1655L97.1788 54.6863L115.423 39.236L115.094 40.7153L97.0144 56.1655ZM116.902 56.0012L117.231 54.5219L135.147 39.236L134.818 40.7153L116.902 56.0012ZM96.1926 61.0965L96.357 59.6172L114.601 44.167L114.273 45.6462L96.1926 61.0965ZM116.081 60.9321L116.245 59.4528L134.325 44.167L133.996 45.6462L116.081 60.9321ZM95.2064 66.0274L95.5351 64.5481L113.615 49.0979L113.451 50.5772L95.2064 66.0274ZM115.094 65.863L115.423 64.3837L133.339 49.0979L133.175 50.5772L115.094 65.863ZM94.3846 70.9583L94.7133 69.479L112.793 54.0288L112.629 55.5081L94.3846 70.9583ZM114.273 70.7939L114.601 69.3147L132.517 54.0288L132.353 55.5081L114.273 70.7939ZM93.5628 75.8892L93.7271 74.4099L111.972 58.9597L111.643 60.439L93.5628 75.8892ZM113.451 75.7248L113.615 74.2456L131.695 58.9597L131.367 60.439L113.451 75.7248ZM112.629 80.6558L112.793 79.1765L130.873 63.7263L130.545 65.3699L112.629 80.6558ZM92.5766 80.8201L92.9053 79.3409L111.15 63.8906L110.821 65.3699L92.5766 80.8201ZM91.7548 85.7511L92.0835 84.2718L110.164 68.8216L109.999 70.3008L91.7548 85.7511ZM111.643 85.5867L111.972 84.1074L129.887 68.8216L129.723 70.3008L111.643 85.5867ZM90.933 90.682L91.0973 89.2027L109.342 73.7525L109.013 75.2318L90.933 90.682ZM110.821 90.5176L111.15 89.0383L129.065 73.7525L128.737 75.2318L110.821 90.5176ZM90.1111 95.6129L90.2755 94.1336L108.52 78.6834L108.191 80.1627L90.1111 95.6129ZM109.999 95.4485L110.164 93.9693L128.244 78.6834L127.915 80.1627L109.999 95.4485ZM89.1249 100.544L89.4537 99.0645L107.534 83.6143L107.369 85.0936L89.1249 100.544ZM109.013 100.379L109.342 98.9002L127.257 83.6143L127.093 85.0936L109.013 100.379ZM88.3031 105.475L88.6319 103.831L106.712 88.5452L106.548 90.0245L88.3031 105.475ZM108.191 105.31L108.52 103.831L126.436 88.5452L126.271 90.0245L108.191 105.31ZM87.4813 110.406L87.6457 108.762L105.89 93.4762L105.561 94.9554L87.4813 110.406ZM107.369 110.241L107.534 108.762L125.614 93.4762L125.285 94.9554L107.369 110.241ZM86.4951 115.337L86.8239 113.693L105.068 98.4071L104.74 99.8864L86.4951 115.337ZM106.548 115.172L106.712 113.529L124.792 98.4071L124.463 99.8864L106.548 115.172ZM85.6733 120.267L86.002 118.624L104.082 103.338L103.918 104.817L85.6733 120.267ZM105.561 120.103L105.89 118.459L123.806 103.338L123.641 104.817L105.561 120.103ZM84.8515 125.198L85.1802 123.555L103.26 108.269L102.932 109.748L84.8515 125.198ZM104.74 125.034L105.068 123.39L122.984 108.269L122.655 109.748L104.74 125.034ZM84.0297 130.129L84.194 128.486L102.438 113.035L102.11 114.679L84.0297 130.129ZM103.918 129.965L104.082 128.486L122.162 113.2L121.833 114.679L103.918 129.965ZM83.0435 135.06L83.3722 133.417L101.617 117.966L101.288 119.61L83.0435 135.06ZM102.932 134.896L103.26 133.252L121.176 118.131L121.012 119.61L102.932 134.896ZM82.2217 139.991L82.5504 138.348L100.63 122.897L100.302 124.541L82.2217 139.991ZM102.11 139.827L102.438 138.183L120.354 122.897L120.025 124.541L102.11 139.827ZM81.5642 144.758C81.5642 144.539 81.5642 144.319 81.5642 144.1C81.6738 143.881 81.6738 143.607 81.5642 143.278L99.8086 127.828L99.4799 129.472L81.5642 144.758ZM87.6457 156.263L86.8239 155.606L119.532 127.828L119.204 129.472L87.6457 156.263ZM90.933 157.742L89.7824 157.249L118.71 132.759L118.382 134.403L90.933 157.742ZM82.0573 148.538C81.9477 148.319 81.8929 148.155 81.8929 148.045C82.0025 147.826 82.0025 147.607 81.8929 147.388L98.9868 132.924L98.6581 134.403L82.0573 148.538ZM83.2078 151.661C83.2078 151.332 83.0435 151.004 82.7148 150.675L98.0006 137.69L97.8362 139.334L83.2078 151.661ZM94.8777 158.564C94.549 158.455 94.0559 158.4 93.3984 158.4L117.724 137.69L117.56 139.334L94.8777 158.564ZM85.3446 154.126C84.9063 153.907 84.6871 153.633 84.6871 153.305L97.3432 142.457L98.0006 143.278L85.3446 154.126ZM116.902 142.785L116.409 144.429L99.973 158.4L98.165 158.564L116.902 142.785ZM114.108 149.36C112.574 151.442 110.985 153.086 109.342 154.291C107.917 155.387 106.548 156.208 105.233 156.756L114.108 149.36ZM136.852 47.1255L137.181 45.6462L160.027 26.0869H161.671L136.852 47.1255ZM137.838 42.1946L138.003 40.7153L155.097 26.0869H156.74L137.838 42.1946ZM138.66 37.2637L138.989 35.7844L150.166 26.0869H151.809L138.66 37.2637ZM139.482 32.3328L139.811 30.8535L145.235 26.0869H146.878L139.482 32.3328ZM140.468 27.4018L140.633 26.0869H141.947L140.468 27.4018ZM136.359 50.5772L164.465 26.58C164.904 26.7992 165.287 26.9087 165.616 26.9087L136.03 52.0564L136.359 50.5772ZM135.209 56.9874L135.373 55.5081L167.753 28.0593L168.574 28.5524L153.617 41.3728H153.289L153.124 41.7015L135.209 56.9874ZM158.055 41.7015C157.617 41.4823 157.398 41.3728 157.398 41.3728H157.069L170.218 30.196L170.875 30.8535L158.055 41.7015ZM157.891 44.8244L172.026 32.8258C172.026 33.045 172.081 33.2094 172.19 33.3189C172.3 33.4285 172.41 33.5381 172.519 33.6477L157.562 46.3037L157.891 44.8244ZM157.069 49.7553L173.012 36.1131C173.231 36.5514 173.286 36.8802 173.177 37.0993L156.74 51.2346L157.069 49.7553ZM155.918 56.1655L156.083 54.6863L173.341 40.0579L173.177 41.3728L173.012 41.5371L155.918 56.1655ZM155.097 61.0965L155.261 59.6172L172.519 44.9888L172.19 46.4681L155.097 61.0965ZM134.387 61.9183L134.551 60.439L152.631 45.1531L152.302 46.6324L134.387 61.9183ZM154.11 66.0274L154.439 64.5481L171.533 49.9197L171.369 51.399L154.11 66.0274ZM133.401 66.8492L133.729 65.3699L151.645 50.0841L151.481 51.5633L133.401 66.8492ZM153.289 70.9583L153.617 69.479L170.711 54.8506L170.547 56.3299L153.289 70.9583ZM132.579 71.7801L132.907 70.3008L150.823 55.015L150.494 56.4943L132.579 71.7801ZM152.467 75.8892L152.631 74.4099L169.889 59.7815L169.561 61.2608L152.467 75.8892ZM131.757 76.711L131.921 75.2318L150.001 59.9459L149.673 61.4252L131.757 76.711ZM151.481 80.8201L151.809 79.1765L169.067 64.5481L168.739 66.1917L151.481 80.8201ZM130.771 81.642L131.099 80.1627L149.015 64.8768L148.851 66.3561L130.771 81.642ZM126.826 104.653L149.015 85.7511H149.508C149.837 85.7511 150.111 85.6415 150.33 85.4223C150.659 85.2032 150.823 84.9292 150.823 84.6005L150.987 84.2718L168.081 69.6434L167.917 71.1227L126.497 106.297L126.826 104.653ZM129.949 86.5729L130.278 85.0936L148.193 69.8077L148.029 71.287L129.949 86.5729ZM125.675 111.227L125.84 109.584L167.259 74.5743L166.931 76.0536L125.675 111.227ZM129.127 91.5038L129.291 90.0245L147.371 74.7387L147.043 76.2179L129.127 91.5038ZM124.689 116.158L125.018 114.515L166.438 79.5052L166.273 79.9983L166.109 80.9845L124.689 116.158ZM128.305 96.4347L128.47 94.9554L146.55 79.6696L146.221 81.1489L128.305 96.4347ZM127.319 101.366L127.648 99.8864L145.563 84.4361L145.399 85.7511H145.728L127.319 101.366ZM142.276 104.16L164.63 85.0936C163.972 86.4085 163.424 87.3399 162.986 87.8878L142.276 105.475V104.16ZM141.783 109.913L142.112 108.598L157.069 95.6129V97.0922L141.783 109.913ZM141.454 114.515L141.619 113.035L157.069 100.051L156.905 101.366L141.454 114.515ZM123.867 121.089L124.196 119.446L142.112 104.16L141.947 105.803L123.867 121.089ZM141.126 118.953L141.29 117.802V117.638L156.74 104.324L156.905 105.639L141.126 118.953ZM140.961 123.39V121.911L156.74 108.598L156.576 110.077L140.961 123.39ZM123.046 126.02L123.374 124.377L141.29 109.091L140.961 110.734L123.046 126.02ZM140.797 127.664L140.961 126.349L156.576 113.035L156.411 114.35L140.797 127.664ZM122.224 130.951L122.388 129.308L140.468 114.022L140.139 115.665L122.224 130.951ZM140.468 132.102L140.633 130.787L156.411 117.309V118.624L140.468 132.102ZM121.238 135.882L121.566 134.238L139.482 118.953L139.318 120.596L121.238 135.882ZM140.304 136.375V135.06L156.247 121.582L156.083 123.062L140.304 136.375ZM120.416 140.813L120.744 139.169L138.66 123.884L138.331 125.527L120.416 140.813ZM140.139 140.813L140.304 139.334L156.083 125.856L155.918 127.335L140.139 140.813ZM119.594 145.744L119.758 144.1L137.838 128.814L137.51 130.458L119.594 145.744ZM139.811 145.251L139.975 143.772L155.918 130.294V131.609L139.811 145.251ZM118.608 150.675L118.936 149.196L136.852 133.91L136.688 135.389L118.608 150.675ZM139.811 149.524V148.209L155.754 134.567L155.59 135.882L139.811 149.524ZM117.786 155.606L118.115 153.962L136.03 138.676L135.866 140.32L117.786 155.606ZM139.482 153.962V152.483L155.59 138.841V140.32L139.482 153.962ZM139.318 157.578V156.921L155.425 143.278V144.593L140.139 157.578H139.318ZM118.772 157.578L135.209 143.607L134.88 145.251L120.416 157.578H118.772ZM143.427 157.578L155.261 147.552V148.867L145.07 157.578H143.427ZM123.703 157.578L134.387 148.538L134.058 150.182L125.347 157.578H123.703ZM148.358 157.578L155.097 151.825V153.305L150.001 157.578H148.358ZM128.634 157.578L133.401 153.469L133.236 155.113L130.278 157.578H128.634ZM153.289 157.578L155.097 156.099L154.932 157.578H153.289ZM198.187 26.0869H199.666L177.313 45.1531L177.477 43.6739L198.187 26.0869ZM193.256 26.0869H194.735L178.134 40.2222L178.299 38.7429L193.256 26.0869ZM188.325 26.0869H189.804L178.956 35.2913L179.285 33.812L188.325 26.0869ZM183.394 26.0869H184.873L179.778 30.3604L180.107 28.8811L183.394 26.0869ZM217.911 26.0869H219.39L203.282 39.7291L203.611 38.2499L217.911 26.0869ZM212.98 26.0869H214.459L204.268 34.7982L204.433 33.3189L212.98 26.0869ZM208.049 26.0869H209.528L205.09 29.8673L205.419 28.388L208.049 26.0869ZM202.789 43.1808L220.705 27.8949L220.54 29.3742L202.46 44.6601L202.789 43.1808ZM199.666 29.0455L199.502 30.5247L176.326 50.0841L176.655 48.6048L199.666 29.0455ZM201.639 49.591L201.803 48.1117L219.883 32.8258L219.554 34.3051L201.639 49.591ZM199.173 33.4833V34.9626L175.505 55.015L175.833 53.5357L199.173 33.4833ZM200.817 54.5219L200.981 53.0426L219.061 37.7568L218.732 39.236L200.817 54.5219ZM198.844 38.0855V39.4004L174.683 59.9459L174.847 58.4666L198.844 38.0855ZM198.516 42.5233V44.0026L173.697 64.8768L174.025 63.3976L198.516 42.5233ZM199.831 59.4528L200.159 57.9735L218.075 42.6877L217.911 44.167L199.831 59.4528ZM198.187 47.1255L198.023 48.4404L172.875 69.8077L173.204 68.3285L198.187 47.1255ZM199.009 64.3837L199.337 62.9045L217.253 47.6186L216.924 49.0979L199.009 64.3837ZM197.858 51.5633L197.694 52.8783L172.053 74.7387L172.217 73.2594L197.858 51.5633ZM198.187 69.3147L198.351 67.8354L216.431 52.5495L216.103 54.0288L198.187 69.3147ZM197.529 56.0012V57.3161L171.231 79.6696L171.396 78.1903L197.529 56.0012ZM197.201 74.2456L197.529 72.7663L215.445 57.4804L215.281 58.9597L197.201 74.2456ZM197.201 60.439V61.9183L170.245 84.6005L170.574 83.1212L197.201 60.439ZM196.379 79.1765L196.708 77.6972L214.623 62.4114L214.459 63.8906L196.379 79.1765ZM196.872 65.0412L196.708 66.3561L169.423 89.5314L169.752 88.0522L196.872 65.0412ZM195.557 84.1074L195.721 82.6281L213.801 67.3423L213.473 68.8216L195.557 84.1074ZM196.543 69.479L196.379 70.7939L168.601 94.4623L168.766 92.9831L196.543 69.479ZM183.887 96.9278L212.98 72.2732L212.651 73.7525L183.723 98.4071L183.887 96.9278ZM196.215 74.0812L195.886 75.3961L167.615 99.3933L167.944 97.914L196.215 74.0812ZM183.394 102.845V101.366L211.993 77.2041L211.829 78.6834L183.394 102.845ZM195.721 78.519L195.557 79.9983L166.793 104.324L167.122 102.845L195.721 78.519ZM183.065 107.447V105.968L211.172 82.135L210.843 83.6143L183.065 107.447ZM195.228 82.9569L195.064 84.4361L184.052 93.8049L184.216 92.49L195.228 82.9569ZM182.572 111.885L182.737 110.406L210.35 87.066L210.021 88.5452L182.572 111.885ZM182.408 116.323L182.572 114.843L209.364 91.9969L209.199 93.4762L182.408 116.323ZM165.972 109.255L166.136 107.776L184.216 92.49L183.887 93.9693L165.972 109.255ZM182.079 120.761L182.244 119.281L208.542 96.9278L208.213 98.4071L182.079 120.761ZM165.15 114.186L165.314 112.707L183.394 97.4209L183.065 98.9002L165.15 114.186ZM181.915 125.198V123.719L207.72 101.859L207.391 103.338L181.915 125.198ZM164.164 119.117L164.492 117.638L182.408 102.352L182.244 103.831L164.164 119.117ZM181.586 129.636L181.75 128.157L206.734 106.79L206.569 108.269L181.586 129.636ZM163.342 124.048L163.67 122.569L181.586 107.283L181.257 108.762L163.342 124.048ZM181.257 134.074L181.422 132.595L205.912 111.721L205.748 113.2L181.257 134.074ZM162.52 128.979L162.684 127.5L180.764 112.214L180.436 113.693L162.52 128.979ZM180.929 138.512L181.093 137.033L205.09 116.651L204.761 118.131L180.929 138.512ZM161.534 133.91L161.862 132.43L179.778 117.145L179.614 118.624L161.534 133.91ZM180.764 142.785V141.47L204.268 121.582L203.94 123.062L180.764 142.785ZM160.712 138.841L161.041 137.361L178.956 122.076L178.628 123.555L160.712 138.841ZM180.436 147.223L180.6 145.908L203.282 126.513L203.118 127.993L180.436 147.223ZM159.89 143.772L160.054 142.292L178.134 127.006L177.806 128.486L159.89 143.772ZM180.107 151.661L180.271 150.346L202.46 131.444L202.132 132.924L180.107 151.661ZM159.068 148.702L159.233 147.223L177.313 131.937L176.984 133.417L159.068 148.702ZM179.942 156.099V154.62L201.639 136.375L201.31 137.854L179.942 156.099ZM158.082 153.633L158.411 151.99L176.326 136.868L176.162 138.348L158.082 153.633ZM183.065 157.578H181.422L200.652 141.306L200.488 142.785L183.065 157.578ZM157.425 157.578L157.589 157.085L175.505 141.799L175.176 143.278L158.411 157.578H157.425ZM187.996 157.578H186.353L199.831 146.237L199.666 147.716L187.996 157.578ZM163.342 157.578H161.698L174.683 146.73L174.354 148.209L163.342 157.578ZM192.927 157.578H191.284L199.009 151.168L198.68 152.647L192.927 157.578ZM168.273 157.578H166.629L173.861 151.497L173.532 153.14L168.273 157.578ZM197.858 157.578H196.215L198.187 155.934L197.858 157.578ZM172.71 157.578H171.56L172.875 156.428L172.71 157.578ZM219.657 52.0564L219.986 50.4128L248.585 26.0869H250.229L219.657 52.0564ZM220.479 47.1255L220.807 45.6462L243.818 26.0869H245.298L220.479 47.1255ZM221.465 42.1946L221.629 40.7153L238.888 26.0869H240.367L221.465 42.1946ZM222.287 37.2637L222.615 35.7844L233.957 26.0869H235.436L222.287 37.2637ZM223.109 32.3328L223.437 30.6891L228.861 26.0869H230.505L223.109 32.3328ZM224.095 27.4018L224.259 26.0869H225.574L224.095 27.4018ZM218.835 56.9874L219.164 55.3437L251.379 27.8949L251.05 29.5386L237.244 41.3728H237.08L236.915 41.5371L218.835 56.9874ZM240.531 41.3728L250.557 32.8258L250.229 34.4695L242.175 41.3728H240.531ZM245.462 41.3728L249.736 37.7568L249.407 39.4004L247.106 41.3728H245.462ZM218.013 61.9183L218.178 60.439L236.422 44.8244L236.093 46.4681L218.013 61.9183ZM217.027 66.8492L217.356 65.3699L235.6 49.7553L235.272 51.399L217.027 66.8492ZM216.205 71.7801L216.534 70.3008L234.614 54.6863L234.45 56.3299L216.205 71.7801ZM215.383 76.711L215.548 75.2318L233.792 59.6172L233.464 61.2608L215.383 76.711ZM214.397 81.642L214.726 80.1627L232.97 64.5481L232.642 66.1917L214.397 81.642ZM213.575 86.5729L213.904 85.0936L231.984 69.6434L231.82 71.1227L213.575 86.5729ZM212.754 91.5038L212.918 90.0245L231.162 74.5743L230.834 76.0536L212.754 91.5038ZM211.932 96.4347L212.096 94.9554L230.341 79.5052L230.012 80.9845L211.932 96.4347ZM210.124 106.297L210.453 104.817L235.929 83.1212H237.408L210.124 106.297ZM210.946 101.366L211.274 99.8864L230.998 83.1212H232.477L210.946 101.366ZM209.302 111.227L209.466 109.748L237.901 85.5867L237.737 87.066L209.302 111.227ZM227.711 98.4071L237.08 90.5176L236.751 91.9969L229.19 98.4071H227.711ZM232.642 98.4071L236.258 95.4485L235.929 96.9278L234.121 98.4071H232.642ZM208.316 116.158L208.645 114.679L226.889 99.2289L226.56 100.708L208.316 116.158ZM207.494 121.089L207.823 119.61L225.903 104.16L225.738 105.639L207.494 121.089ZM206.672 126.02L206.837 124.541L225.081 109.091L224.752 110.57L206.672 126.02ZM205.85 130.951L206.015 129.472L224.259 113.857L223.93 115.501L205.85 130.951ZM204.864 135.882L205.193 134.238L223.273 118.953L223.109 120.432L204.864 135.882ZM204.042 140.813L204.371 139.169L222.451 123.719L222.287 125.363L204.042 140.813ZM203.221 145.744L203.385 144.1L221.629 128.65L221.301 130.294L203.221 145.744ZM202.234 150.675L202.563 149.031L220.807 133.581L220.479 135.225L202.234 150.675ZM201.413 155.606L201.741 153.962L219.821 138.512L219.657 140.156L201.413 155.606ZM202.399 157.578L220.314 142.292H221.958L204.042 157.578H202.399ZM207.33 157.578L225.245 142.292H226.889L208.973 157.578H207.33ZM212.261 157.578L230.176 142.292H231.162V142.95L213.904 157.578H212.261ZM217.191 157.578L230.505 146.237L230.176 147.881L218.835 157.578H217.191ZM222.287 157.578L229.683 151.332L229.354 152.812L223.766 157.578H222.287ZM227.053 157.578L228.861 156.099L228.533 157.578H227.053ZM252.799 40.3866L252.635 39.0717L267.921 26.0869H268.907L269.071 26.58L252.799 40.3866ZM252.799 35.9488L252.964 34.6338L262.99 26.0869H264.634L252.799 35.9488ZM253.128 31.6753L253.292 30.196L258.059 26.0869H259.703L253.128 31.6753ZM253.292 27.2375V26.0869H254.772L253.292 27.2375ZM273.181 44.0026L273.674 42.359L292.74 26.0869H293.89V26.2513L273.181 44.0026ZM274.824 38.4142L275.317 36.6062L287.645 26.0869H289.288L274.824 38.4142ZM276.468 32.8258L276.961 31.0178L282.714 26.0869H284.357L276.468 32.8258ZM278.111 27.2375L278.276 26.0869H279.426L278.111 27.2375ZM252.471 44.8244L252.635 43.3451L268.743 29.5386V31.0178L252.471 44.8244ZM271.537 49.591L272.03 47.783L292.575 30.3604L292.082 32.004L271.537 49.591ZM252.142 49.0979L252.306 47.783L268.414 34.1408L268.25 35.4557L252.142 49.0979ZM269.893 55.015L270.386 53.3713L290.767 36.1131L290.274 37.7568L269.893 55.015ZM252.142 53.5357V52.0564L268.085 38.5786L267.921 39.8935L252.142 53.5357ZM268.25 60.6034L268.743 58.9597L288.959 41.8659L288.302 43.5095L268.25 60.6034ZM251.813 57.8092V56.4943L267.757 43.0164L267.592 44.3313L251.813 57.8092ZM251.649 62.247L251.813 60.9321L267.428 47.4542V48.7691L251.649 62.247ZM266.935 66.0274L267.263 64.3837L287.151 47.6186L286.658 49.2622L266.935 66.0274ZM251.484 66.6848V65.3699L267.099 51.8921V53.3713L251.484 66.6848ZM265.784 71.1227L266.113 69.6434L285.343 53.207L284.85 55.015L265.784 71.1227ZM251.156 70.9583V69.6434L266.77 56.4943V57.8092L251.156 70.9583ZM264.634 76.2179L265.127 74.7387L283.535 58.9597L283.042 60.7677L264.634 76.2179ZM250.991 75.3961L251.156 74.0812L266.606 60.9321L266.442 62.247L250.991 75.3961ZM250.17 92.8187V91.5038L281.727 64.7125L281.234 66.5205L250.17 92.8187ZM250.827 79.6696V78.3547L266.113 65.5343L265.784 66.8492L250.827 79.6696ZM250.663 84.1074V82.7925L265.455 70.3008L265.127 71.7801L250.663 84.1074ZM250.005 97.2565V95.9416L279.755 70.4652L279.426 72.2732L250.005 97.2565ZM250.334 88.3809V87.2303L264.798 75.0674L264.469 76.5467L250.334 88.3809ZM249.676 101.53L249.841 100.215L278.111 76.0536L277.454 78.0259L249.676 101.53ZM249.512 105.968L249.676 104.489L276.303 81.9707L275.646 83.7787L249.512 105.968ZM249.348 110.241V108.926L274.495 87.5591L273.838 89.3671L249.348 110.241ZM249.183 114.679L249.019 113.364L272.687 93.3118L272.03 95.1198L249.183 114.679ZM248.855 119.117L249.019 117.638L270.879 99.0645L270.222 100.873L248.855 119.117ZM248.033 123.884L248.362 122.404L269.071 104.817L268.414 106.625L248.033 123.884ZM247.211 128.814L247.375 127.335L267.099 110.57L266.442 112.378L247.211 128.814ZM246.389 133.745L246.554 132.102L265.291 116.323L264.798 118.131L246.389 133.745ZM245.403 138.676L245.732 137.033L263.812 121.747L263.647 123.226L245.403 138.676ZM244.581 143.607L244.91 141.964L262.99 126.678L262.826 128.157L244.581 143.607ZM243.759 148.538L243.924 147.059L262.168 131.609L261.839 133.088L243.759 148.538ZM242.773 153.469L243.102 151.825L261.346 136.375L261.018 138.019L242.773 153.469ZM242.116 157.578L242.28 156.756L260.36 141.306L260.196 142.95L243.102 157.578H242.116ZM246.389 157.578L259.538 146.237L259.21 147.881L248.033 157.578H246.389ZM251.32 157.578L258.716 151.168L258.388 152.812L252.964 157.578H251.32ZM256.251 157.578L257.895 156.099L257.566 157.578H256.251Z" fill="#101010"/>
</g>
</svg>
