<svg width="199" height="199" viewBox="0 0 199 199" fill="none" xmlns="http://www.w3.org/2000/svg">
<path fill-rule="evenodd" clip-rule="evenodd" d="M154.783 141.971C154.882 133.282 160.677 126.034 165.937 119.114C198.456 76.3305 208.926 31.4427 188.487 11.0037C163.999 -13.4841 104.417 6.39575 55.406 55.4065C6.39517 104.417 -13.4847 164 11.0031 188.488C31.4421 208.926 76.3299 198.456 119.113 165.937C126.033 160.677 133.282 154.883 141.97 154.784C149.787 154.695 157.631 157.631 163.593 163.594C157.631 157.631 154.694 149.788 154.783 141.971ZM128.262 151.94C125.699 159.549 118.968 164.769 112.01 168.774C78.8594 187.856 43.9646 190.39 26.5488 172.974C3.28538 149.71 15.5847 95.2278 55.406 55.4065C95.2272 15.5853 147.491 5.50472 170.754 28.7681C188.045 46.0588 186.898 79.3525 168.819 111.659C164.736 118.954 159.263 125.99 151.283 128.475C140.943 131.695 129.213 129.214 121.028 121.028C129.386 129.387 131.797 141.442 128.262 151.94Z" fill="#40FF99"/>
</svg>
