<svg width="204" height="236" viewBox="0 0 204 236" fill="none" xmlns="http://www.w3.org/2000/svg">
<g clip-path="url(#clip0_472_1876)">
<path d="M168.422 236C174.283 159.291 164.224 82.4141 116.983 15.2454L128.307 14.2961C122.362 29.1767 116.362 44.0387 110.301 58.8866C98.5397 87.7921 85.4972 119.129 73.3142 147.787C67.8631 160.806 59.7947 179.265 54.2605 192.078L51.8483 187.378C90.1774 202.839 130.165 220.259 168.416 236.005L168.422 236ZM168.422 236C128.324 222.027 84.1719 207.431 44.4453 192.976C55.9851 162.359 68.3289 130.489 80.39 100.04C93.4214 67.3137 107.434 32.4784 120.998 0C173.806 71.9247 184.348 153.656 168.422 236Z" fill="#40FF99"/>
<path d="M0.298514 208.146C16.5407 198.877 31.7681 192.947 44.9493 193.761C48.4207 198.989 45.0657 213.669 42.0047 227.937C62.7553 224.574 79.6906 209.362 93.8034 185.385C98.3339 177.692 104.589 170.809 112.12 165.024L184.347 109.509C185.257 108.812 186.721 109.069 187.192 110.023C188.639 112.937 188.9 116.823 188.212 120.98C194.889 110.636 200.817 101.026 203.024 95.0352C192.382 96.6486 182.329 100.376 172.691 105.609C176.623 104.594 179.745 104.65 182.135 105.492C183.41 105.941 183.61 107.395 182.501 108.092L112.341 151.958C99.3099 160.104 84.9198 166.572 69.6536 171.192C46.6683 178.151 11.6109 191.128 0.292969 208.141L0.298514 208.146Z" fill="#40FF99"/>
</g>
<defs>
<clipPath id="clip0_472_1876">
<rect width="202.725" height="236" fill="white" transform="translate(0.298828)"/>
</clipPath>
</defs>
</svg>
