<svg width="341" height="202" viewBox="0 0 341 202" fill="none" xmlns="http://www.w3.org/2000/svg">
<g clip-path="url(#clip0_867_3354)">
<path d="M0 37.856C78.6089 37.665 158.653 38.8049 236.707 29.5993C263.093 26.1179 298.906 20.6833 321.197 6.29564L330.587 -0.0078125L335.698 9.77085L335.963 10.2761C340.507 19.9007 341.449 31.0103 340.84 41.399C337.897 79.6017 313.395 112.579 287.016 138.514C267.545 157.418 245.605 173.728 222.298 187.574C260.876 150.862 327.94 86.3488 320.6 28.8969C320.045 25.5757 319.343 22.3716 317.964 19.377L318.038 19.5125L332.539 22.9878C300.273 44.4614 245.698 49.1197 207.465 51.2331C165.826 53.1063 123.923 51.6521 82.4821 48.1646C54.9819 45.7738 27.2108 42.6252 0.0123154 37.856H0Z" fill="#40FF99"/>
<path d="M237.595 150.695C222.176 135.901 190.113 133.313 169.46 132.832H167.256L173.407 126.991C173.493 133.485 172.323 139.93 170.224 145.895C167.126 154.836 162.305 162.735 156.609 170.092C150.895 177.277 144.472 183.888 137.237 189.539L121.27 201.998L125.18 181.836C126.159 176.858 125.414 171.663 123.844 166.691C119.072 152.531 109.423 140.436 99.4102 129.425C97.3967 127.256 95.1553 124.976 92.9939 122.936L95.5617 124.274C94.4902 123.953 93.4373 123.59 92.4274 123.245C70.4075 115.345 47.0946 102.51 34.1942 82.3553C30.8629 77.0192 28.4553 71.1286 27.4146 64.9484C27.0883 62.9088 26.9097 60.8693 26.8789 58.8359C27.4023 60.8015 28.0242 62.7178 28.7508 64.5787C35.3334 81.1907 50.6907 92.1278 66.1711 99.8238C74.8965 104.106 84.053 107.563 93.3818 110.28C95.5617 110.903 97.9016 111.537 100.106 111.969C105.79 116.59 111.202 121.587 116.171 126.979C125.482 137.115 133.998 148.655 138.425 161.971C140.851 169.223 141.812 177.252 140.162 184.967L128.111 177.264L128.782 176.747C140.654 167.11 151.64 155.236 157.816 141.157C159.774 136.48 161.147 131.637 161.48 126.72L161.904 120.478C170.285 120.94 178.887 122.037 187.077 123.787C204.528 127.576 227.718 134.761 237.613 150.689L237.595 150.695Z" fill="#40FF99"/>
<path d="M205.254 108.943C211.843 103.25 219.201 98.5175 226.597 94.0934C244.429 83.3904 263.469 75.6205 281.806 66.1622C285.489 64.1165 288.956 62.1386 291.831 58.8359C291.979 61.1281 291.345 63.525 290.409 65.6755C278.494 91.0495 232.126 109.547 205.248 108.943H205.254Z" fill="#40FF99"/>
</g>
<defs>
<clipPath id="clip0_867_3354">
<rect width="341" height="202" fill="white"/>
</clipPath>
</defs>
</svg>
