<svg width="207" height="175" viewBox="0 0 207 175" fill="none" xmlns="http://www.w3.org/2000/svg">
<g clip-path="url(#clip0_961_7360)">
<path d="M199.318 90.4383C175.657 86.2664 153.059 102.284 148.839 126.217C153.059 102.284 137.301 79.5035 113.64 75.3316C137.301 79.5035 159.9 63.4833 164.119 39.5534C159.9 63.4864 175.661 86.267 199.318 90.4383Z" fill="#1E1E1E" stroke="#1E1E1E" stroke-width="0.65" stroke-miterlimit="10"/>
</g>
<g clip-path="url(#clip1_961_7360)">
<path d="M96.8665 48.2603C74.3365 56.6059 62.9173 81.8417 71.3589 104.631C62.9173 81.8417 37.8137 70.1348 15.2838 78.4804C37.8137 70.1348 49.2318 44.8961 40.7914 22.1101C49.2329 44.8991 74.3394 56.6048 96.8665 48.2603Z" fill="#14AE5C" stroke="#14AE5C" stroke-width="0.65" stroke-miterlimit="10"/>
</g>
<g clip-path="url(#clip2_961_7360)">
<path d="M170.632 81.952C136.425 76.6204 104.327 100.344 98.934 134.945C104.327 100.344 80.9717 67.9774 46.7642 62.6458C80.9717 67.9774 113.07 44.2493 118.462 9.65313C113.069 44.2538 136.429 76.6211 170.632 81.952Z" fill="#40FF99" stroke="#40FF99" stroke-width="0.65" stroke-miterlimit="10"/>
</g>
<path d="M22.5 160V90.5C22.5 82.2157 29.2157 75.5 37.5 75.5H79.7868C83.765 75.5 87.5804 77.0804 90.3934 79.8934L103.107 92.6066C105.92 95.4196 109.735 97 113.713 97H164.5C172.784 97 179.5 103.716 179.5 112V160C179.5 168.284 172.784 175 164.5 175H37.5C29.2157 175 22.5 168.284 22.5 160Z" fill="#F6F6F6"/>
<defs>
<clipPath id="clip0_961_7360">
<rect width="87" height="88" fill="white" transform="translate(121.28 32) rotate(9.99956)"/>
</clipPath>
<clipPath id="clip1_961_7360">
<rect width="87" height="88" fill="white" transform="translate(0 37.2202) rotate(-20.3258)"/>
</clipPath>
<clipPath id="clip2_961_7360">
<rect width="125.363" height="126.804" fill="white" transform="translate(56.5283) rotate(8.85895)"/>
</clipPath>
</defs>
</svg>
