<svg width="456" height="182" viewBox="0 0 456 182" fill="none" xmlns="http://www.w3.org/2000/svg">
<path d="M0.78086 130.364C9.324 171.824 94.245 183.147 161.729 181.207C255.619 178.555 375.432 151.297 433.723 99.0712C457.766 77.2536 463.435 51.859 443.871 33.1512C431.837 21.4477 411.629 13.1045 389.341 8.15289C313.6 -7.98367 217.233 4.26903 136.159 29.5378C71.7564 49.841 -4.72748 88.3985 0.794221 130.361L0.78086 130.364ZM0.78086 130.364C-4.3025 88.2292 72.9956 51.3214 138.62 33.5377C216.343 12.6855 307.239 4.9139 375.969 21.3617C402.744 28.0645 425.733 40.3461 428.665 58.2242C431.77 76.0729 414.108 95.223 390.998 110.344C331.48 148.451 243.005 170.906 162.738 176.675C94.9097 181.383 9.77855 171.83 0.78086 130.364Z" fill="#40FF99"/>
</svg>
