<svg width="136" height="260" viewBox="0 0 136 260" fill="none" xmlns="http://www.w3.org/2000/svg">
<path d="M101.779 95.5373C105.083 103.199 109.855 110.384 116.088 116.647C109.851 110.379 102.711 105.583 95.0807 102.259C95.0273 102.234 94.9788 102.215 94.9255 102.19C87.8 99.1685 79.8305 104.169 79.2387 111.914L68.0049 259L56.771 111.924C56.1792 104.174 48.2097 99.1733 41.0794 102.195C41.026 102.215 40.9775 102.239 40.9242 102.264C33.2942 105.588 26.1494 110.379 19.9164 116.647C26.1494 110.379 30.9223 103.199 34.2304 95.5373C37.9993 86.798 33.789 76.5819 24.9755 73.0823C17.2437 70.0165 8.81832 68.33 0 68.33C8.81832 68.33 17.2437 66.6436 24.9755 63.5729C33.789 60.0782 37.9993 49.8621 34.2304 41.1228C30.9223 33.4607 26.1494 26.2812 19.9164 20.0131C26.1494 26.2812 33.2942 31.0724 40.9193 34.3965C49.6164 38.1837 59.7783 33.9579 63.261 25.0967C66.3169 17.3274 67.9951 8.86112 67.9951 0C67.9951 8.73439 69.6249 17.0837 72.5983 24.7604C76.1392 33.9042 86.4661 38.2032 95.4057 34.2552C102.909 30.9359 109.943 26.1885 116.084 20.0131C109.846 26.2812 105.078 33.4607 101.77 41.1277C98.0007 49.8621 102.211 60.0733 111.024 63.5729C118.756 66.6436 127.182 68.33 136 68.33C127.182 68.33 118.756 70.0165 111.024 73.0872C102.211 76.5819 97.9959 86.798 101.77 95.5373H101.779Z" fill="#40FF99" stroke="#40FF99" stroke-width="0.65" stroke-miterlimit="10"/>
</svg>
